<?xml version="1.0" encoding="utf-8"?>
<!-- Generator: Adobe Illustrator 23.0.2, SVG Export Plug-In . SVG Version: 6.00 Build 0)  -->
<svg version="1.1" id="Laag_1" xmlns="http://www.w3.org/2000/svg" xmlns:xlink="http://www.w3.org/1999/xlink" x="0px" y="0px"
	 viewBox="0 0 331.4 98.4" style="enable-background:new 0 0 331.4 98.4;" xml:space="preserve">
<style type="text/css">
	.st0{fill:#B1B3B6;}
	.st1{fill:#FFFFFF;}
	.st2{fill-rule:evenodd;clip-rule:evenodd;fill:#FEC00F;}
	.st3{fill:#224455;}
	.st4{fill:#8DC63F;}
	.st5{fill:none;}
	.st6{fill:#228ABC;}
</style>
<path class="st0" d="M317.6,0.5l-50.9,0c-7.6,0-13.8,6.2-13.8,13.8l0,0.5c0.3-0.3,0.7-0.4,1.1-0.4c1,0,1.8,0.8,1.8,1.8
	c0,1-0.8,1.8-1.8,1.8c-0.4,0-0.8-0.2-1.1-0.4l0,3.9c0.3-0.3,0.7-0.4,1.1-0.4c1,0,1.8,0.8,1.8,1.8c0,1-0.8,1.8-1.8,1.8
	c-0.4,0-0.8-0.2-1.1-0.4l0,3.9c0.3-0.2,0.7-0.4,1.1-0.4c1,0,1.8,0.8,1.8,1.8c0,1-0.8,1.8-1.8,1.8c-0.4,0-0.8-0.2-1.1-0.4l0,3.9
	c0.3-0.3,0.7-0.4,1.1-0.4c1,0,1.8,0.8,1.8,1.8c0,1-0.8,1.8-1.8,1.8c-0.4,0-0.8-0.2-1.1-0.4l0,3.9c0.3-0.3,0.7-0.4,1.1-0.4
	c1,0,1.8,0.8,1.8,1.8c0,1-0.8,1.8-1.8,1.8c-0.4,0-0.8-0.2-1.1-0.4l0,3.9c0.3-0.3,0.7-0.4,1.1-0.4c1,0,1.8,0.8,1.8,1.8
	c0,1-0.8,1.8-1.8,1.8c-0.4,0-0.8-0.2-1.1-0.4l0,3.9c0.3-0.3,0.7-0.4,1.1-0.4c1,0,1.8,0.8,1.8,1.8c0,1-0.8,1.8-1.8,1.8
	c-0.4,0-0.8-0.2-1.1-0.4l0,3.9c0.3-0.3,0.7-0.4,1.1-0.4c1,0,1.8,0.8,1.8,1.8c0,1-0.8,1.8-1.8,1.8c-0.4,0-0.8-0.2-1.1-0.4l0,3.9
	c0.3-0.2,0.7-0.4,1.1-0.4c1,0,1.8,0.8,1.8,1.8c0,1-0.8,1.8-1.8,1.8c-0.4,0-0.8-0.2-1.1-0.4l0,3.9c0.3-0.3,0.7-0.4,1.1-0.4
	c1,0,1.8,0.8,1.8,1.8c0,1-0.8,1.8-1.8,1.8c-0.4,0-0.8-0.2-1.1-0.4l0,3.9c0.3-0.3,0.7-0.4,1.1-0.4c1,0,1.8,0.8,1.8,1.8
	c0,1-0.8,1.8-1.8,1.8c-0.4,0-0.8-0.2-1.1-0.4c0,7.6,6.2,13.8,13.8,13.8l50.9,0c7.6,0,13.8-6.2,13.8-13.8l0-70.3
	C331.4,6.7,325.2,0.5,317.6,0.5z"/>
<path class="st1" d="M316.8,2l-49.4,0c-7.1,0-12.9,5.5-13.4,12.5c1,0,1.8,0.8,1.8,1.8c0,1-0.8,1.8-1.8,1.8l0,3c1,0,1.8,0.8,1.8,1.8
	c0,1-0.8,1.8-1.8,1.8l0,3c1,0,1.8,0.8,1.8,1.8c0,1-0.8,1.8-1.8,1.8l0,3c1,0,1.8,0.8,1.8,1.8c0,1-0.8,1.8-1.8,1.8l0,3
	c1,0,1.8,0.8,1.8,1.8c0,1-0.8,1.8-1.8,1.8l0,3c1,0,1.8,0.8,1.8,1.8c0,1-0.8,1.8-1.8,1.8l0,3c1,0,1.8,0.8,1.8,1.8
	c0,1-0.8,1.8-1.8,1.8l0,3c1,0,1.8,0.8,1.8,1.8c0,1-0.8,1.8-1.8,1.8l0,3c1,0,1.8,0.8,1.8,1.8c0,1-0.8,1.8-1.8,1.8l0,3
	c1,0,1.8,0.8,1.8,1.8c0,1-0.8,1.8-1.8,1.8l0,3c1,0,1.8,0.8,1.8,1.8c0,1-0.8,1.8-1.7,1.8c0.7,6.7,6.4,11.9,13.3,11.9l49.4,0
	c7.4,0,13.4-6,13.4-13.4l0-68.2C330.2,8,324.2,2,316.8,2z"/>
<g>
	<path class="st2" d="M293,34c-0.1,0-0.3,0.1-0.4,0.1c0,0.1,0.1,0.1,0.1,0.2c-0.1,0,0,0-0.1,0c-0.1,0-0.2-0.2-0.3-0.3
		c-0.1,0-0.1,0.1-0.2,0.1c-0.1,0-0.1-0.1-0.2-0.1c-0.1,0,0,0.1-0.1,0.1s-0.1-0.1-0.2-0.1c-0.1,0.1-0.2,0.3-0.3,0.4
		c0-0.1,0-0.1,0-0.3l-0.3,0l0,0.2c-0.1,0-0.3,0-0.4,0.1l0,0.2c-0.1,0-0.3,0-0.4,0.1c0,0.1,0,0.2,0,0.2c0,0-0.1-0.1-0.1-0.2
		c-0.2,0-0.3,0.3-0.4,0.5c0,0-0.1-0.1-0.1-0.2l-0.3,0c-0.1,0.2-0.2,0.2-0.3,0.2c0,0.2-0.1,0.4-0.1,0.5c0,0.1,0.1,0.1,0.1,0.2
		c-0.3,0.1-0.1,0.3-0.4,0.6c0-0.1,0-0.2-0.1-0.3l0,0.3c0,0.1,0.1,0,0.1,0.2c0,0.1-0.1,0.2-0.2,0.3c0,0-0.1-0.1-0.2-0.1
		c0.1,0.1,0.2,0.2,0.3,0.3l-0.1,0.3c0,0-0.1,0-0.1-0.1l-0.2,0.1c0.1,0,0.3,0.1,0.4,0.2c-0.1,0-0.1,0.3-0.4,0.3l0,0.2l0.2,0
		c0,0.1,0.2,0.2,0.2,0.4c0,0.1-0.2,0.3-0.3,0.4c0.1,0,0.2,0,0.2-0.1l0.2,0c-0.1,0-0.2,0.2-0.4,0.3c0.1,0,0.3,0,0.4,0.1
		c0,0,0,0.1-0.1,0.1c0,0.1,0.1,0.1,0.1,0.3c0,0.1-0.1,0.1-0.1,0.3c0.1,0,0.3,0,0.4,0.1c-0.1,0.1-0.2,0.2-0.3,0.4l0.4,0
		c0-0.1,0-0.1,0.1-0.2c0.2,0.3,0.3,0.5,0.3,0.7c0,0.1-0.1,0.1-0.1,0.3c0.1,0,0.1-0.1,0.1-0.2c0,0,0.1,0,0.1,0.2l0.2,0
		c0-0.1,0-0.2,0.1-0.2c0,0.1,0,0.1,0,0.2c0,0.3,0,0.1-0.2,0.4h0.2c0-0.1,0-0.1,0.1-0.2c0,0.2,0.2,0.4,0.3,0.6c0.1,0,0.2-0.1,0.2-0.2
		l0.2,0c0,0.1,0,0.1,0,0.2c0.1,0,0.1-0.1,0.2-0.2c0,0.1,0.2,0.2,0.2,0.3c0,0.1-0.1,0.1-0.1,0.2c0.1,0,0.1-0.1,0.1-0.2
		c0.3,0,0.4,0,0.7,0.4c0.1,0,0.1-0.1,0.1-0.1l0.3,0c-0.1,0.1-0.2,0.2-0.3,0.4c0.1-0.1,0.3-0.2,0.4-0.4l0.3,0c0,0-0.1,0.1-0.2,0.2
		l0.5,0c0,0.1,0.1,0.2,0.1,0.3c0-0.1,0-0.3,0.1-0.4c0.1,0.1,0.2,0.1,0.3,0.3c0.1-0.1,0.3-0.3,0.4-0.3c0.1,0,0.1,0.1,0.2,0.1
		c0.1,0,0.3-0.3,0.5,0l0-0.3c0,0,0,0,0.1,0c0.1,0,0.1,0,0.1,0.1c0.1-0.1,0.3-0.1,0.5-0.1c0-0.1,0.1-0.3,0.2-0.4c0,0,0.1,0,0.1,0.1
		c0.1-0.1,0.2-0.1,0.4-0.1c0-0.2,0.1-0.3,0.1-0.5c0-0.1,0-0.2-0.1-0.2c0.1-0.1,0.2-0.2,0.4-0.3c0-0.1-0.1-0.1-0.2-0.2
		c0.3-0.2,0.3-0.3,0.6-0.5l0-0.3c-0.1,0-0.1,0-0.2,0v-0.2c0.1,0,0.1,0,0.2,0c0-0.1-0.1-0.2-0.2-0.2l0-0.1c0.1,0,0.2,0,0.3,0
		c0-0.1-0.1-0.2-0.1-0.2c0.1-0.1,0.1-0.2,0.2-0.4c-0.1,0-0.2,0.1-0.2-0.1c0-0.1,0-0.1,0.1-0.1c-0.1-0.1-0.1-0.3-0.3-0.3
		c0,0,0.1-0.1,0.2-0.1c0-0.1-0.1-0.1-0.2-0.1c0,0,0-0.1,0.2-0.1c-0.1-0.3-0.3-0.5-0.3-0.6c0-0.1,0.2-0.4,0.3-0.4
		c-0.1,0-0.2,0-0.3,0.1c-0.2-0.3-0.2-0.4-0.3-0.8c0,0.1,0,0.3-0.1,0.4c0,0-0.1-0.1-0.2-0.2c0.1-0.1,0.1-0.3,0.2-0.4
		c0-0.1-0.1-0.1-0.1-0.3c-0.2,0-0.5-0.2-0.5-0.3c0-0.1,0.1-0.1,0.1-0.2l-0.3,0c0,0.1,0,0.2-0.1,0.4c0-0.2,0-0.4,0-0.7
		c-0.4-0.1-0.7-0.3-0.9-0.5c-0.1,0-0.1,0.1-0.1,0.2l-0.2,0c0-0.1,0,0,0-0.1c0-0.1,0.1-0.2,0.1-0.2c-0.2,0-0.3,0.1-0.4,0.1
		c-0.1-0.1-0.2-0.3-0.4-0.4c0,0.1,0,0.2-0.1,0.3c0,0-0.1-0.1-0.1-0.2c-0.1,0-0.1,0.1-0.2,0.2c0,0,0,0,0-0.1
		C292.8,34.1,293,34.1,293,34L293,34z"/>
	<g>
		<polygon class="st3" points="301.3,53 301.3,53 301.3,53 		"/>
		<polygon class="st3" points="286.6,53 286.6,52.9 286.6,52.9 		"/>
		<path class="st3" d="M298.9,50.9l0,0.2l0.2,0C299,51,299,51,298.9,50.9z"/>
		<path class="st3" d="M281.8,49.3l0.1-0.1L281.8,49.3C281.8,49.3,281.8,49.3,281.8,49.3z"/>
		<path class="st3" d="M287.7,51.1l0.2,0c0,0,0,0,0,0L287.7,51.1C287.7,51.1,287.7,51.1,287.7,51.1z"/>
		<path class="st3" d="M304.1,50.6c0.1-0.1,0.2-0.3,0.3-0.4l0.1,0.3c0-0.3,0.2-0.5,0.2-0.8c0.1,0,0.3,0,0.2,0.1
			c0.1-0.1,0.4-0.4,0.6-0.3l0,0c0.1-0.1,0.1-0.2,0.2-0.3l0,0c0,0,0,0,0-0.1l0.1,0.1l0.1,0.1l0-0.1l-0.1-0.1l0.2-0.1
			c0-0.2,0.1-0.4,0.1-0.6l0.3,0l-0.1-0.1c0.1-0.1,0.2-0.2,0.4-0.3l0-0.4l0.1,0.1l0.3-0.1l-0.2-0.1l0,0l0-0.5l0.3,0.1
			c-0.2,0.1-0.1,0.3,0,0.4c0.2-1.1,0.1-0.4,0.7-1.1l-0.3-0.1l0-0.2l0.3,0c0-0.2,0-0.4,0.1-0.6l0.1,0.1l0.3,0l-0.2-0.1v-0.2
			c0.4-0.1,0.3-0.6,0.5-1l0.2,0.1c0-0.4,0-1.2,0.4-1.5l-0.2-0.2l0-0.1l0.4-0.6c-0.2-0.4,0-0.4,0-0.7l0.3-0.1
			c-0.1-0.2-0.3-0.7,0.1-0.8l-0.2-0.2l-0.1-0.1l0.2-0.1l0.2-0.3l-0.2-0.1l0.2-0.1V39l-0.3-0.1l0.3,0l0-0.7c-0.4,0,0-0.3,0.1-0.4
			c-0.1-0.3-0.6-0.8-0.1-1l-0.3-0.3l0-0.2c0.1-0.1,0.3-0.1,0.4-0.3l-0.4,0l0-0.1c0.1-0.1,0.2-0.3,0.3-0.3l-0.2-0.2l0.2-0.1l-0.2-0.1
			l0.2-0.1l0-0.4c-0.3,0-0.5-0.4-0.3-0.6l-0.4-0.1c0.1-0.1,0.2-0.2,0.3-0.3l-0.2-0.1l0.2-0.1l0-0.4l-0.2,0l0-0.1l0.1-0.1
			c0-0.1,0-0.3-0.1-0.5l-0.1,0.3l-0.3-0.2l0.2-0.2l-0.3-0.1c0.1-0.1,0.2-0.2,0.3-0.3l-0.3-0.3c0.1-0.2,0.3-0.3,0.4-0.5l-0.2,0.2
			l-0.2,0c-0.1,0.1-0.1-0.2,0.1-0.3c-0.2,0-0.3-0.1-0.5-0.1l0-0.1c0.3-0.4-0.1-0.3-0.1-0.5l0.1-0.1l-0.1-0.3l-0.1,0.1
			c-0.2-0.1-0.3-0.3-0.3-0.5l-0.2,0.1l0-0.2l0.3,0l-0.1-0.3c-0.1,0-0.4,0-0.3,0.1c-0.1-0.1-0.3-0.2-0.4-0.3l0,0
			c-0.1,0-0.2-0.2-0.2-0.2c0,0-0.1,0-0.1,0l0.2-0.2c-0.1,0-0.3,0.1-0.4,0.1l0,0.1c0,0,0,0-0.1,0c-0.1,0-0.1,0-0.2,0
			c0,0,0.1-0.1,0.1-0.1c0,0,0-0.1,0-0.1l0.1,0c0-0.1,0.1-0.1,0.1-0.2l-0.2,0.1c-0.3-0.3-0.9-0.4-0.7-0.9c-0.3,0-0.5-0.1-0.8-0.1
			c-0.2-0.3-0.6-0.4-0.6-0.8c-0.1,0.1-0.4,0.2-0.5,0.1l0.1-0.2l-0.2,0l0.1-0.3l-0.1,0.1c-0.2-0.1-0.5-0.1-0.7-0.1
			c-0.1-0.2-0.3-0.4-0.5-0.5l0.1-0.2l-0.3,0.3l-0.2,0l0-0.3l-0.3,0l0-0.1l-0.2,0l0,0.3c0.2,0.2,0.5,0.3,0.4,0.6l0.2,0l-0.1-0.1
			l0.3-0.3c0.1,0.3,0,0.4-0.1,0.7c0.1-0.1,0.3-0.2,0.4-0.3c0.1,0.3,0.2,0.5,0.2,0.8l0.4,0c0.1,0.1,0.2,0.2,0.3,0.3l-0.1,0.1l0,0.3
			l0.1-0.2c0.2,0,0.4,0.3,0.7,0.5l-0.2,0.2l0.3-0.1l0,0.1l-0.1,0.3l0.2-0.2c0.1,0.3,0,0.6,0,0.9c0.2,0,0.5,0,0.7,0l-0.1,0.1
			c0.1,0.2,0.3,0.2,0.4,0.4c-0.1,0-0.3,0.1-0.4,0.2c0.2,0,0.4,0.1,0.5,0.2l-0.1,0.2c0.3,0,0.4,0.3,0.6,0.5l-0.2,0.1
			c0.1,0.1,0.1,0.3,0.1,0.5l0.2-0.1l-0.1,0.4l0.3,0.1c-0.1,0.1-0.2,0.2-0.3,0.4l0.3,0.1l-0.2,0.1l0.2,0.1l-0.2,0.2
			c0.2,0,0.4-0.2,0.6,0l-0.3,0c0,0.3-0.3,0.4,0.1,0.7l-0.1-0.2l0-0.2l0.4,0l-0.1,0.1l0.1,0.1l-0.1,0.1l0,0.4l0.2-0.2
			c0.1,0.3-0.1,0.3-0.2,0.6l0.1-0.2l0.3,0.2l-0.3,0.2c0,0.3,0.4,0.4,0.4,0.7c0,0.1-0.1,0.2-0.1,0.4c0.2,0,0.3,0.1,0.5,0.2l-0.1,0.1
			l0.1,0.2c-0.1,0.1-0.1,0.3-0.1,0.4l-0.3,0c0.1,0.1,0.1,0.2,0.1,0.4l0.3,0l-0.3,0.4l0.2,0l0.2,0.5l-0.2,0.2l0.1,0.1
			c0,0.2-0.1,0.5-0.3,0.6l0.4,0c0.1,0.2-0.2,1.3-0.2,1.6l-0.4,0c0,0,0.1,0.1,0.1,0.2l0,0c0,0.1,0,0.2-0.1,0.3l0.2,0.1l-0.2,0.1
			c0.1,0.1,0.2,0.3,0.2,0.4c0,0.2-0.2,0.3-0.4,0.3l0,0.3l0.2-0.2l0.1,0c0.2,0.3-0.3,0.7-0.4,0.9l-0.1,0l-0.1-0.1L307,42l-0.3,0.1
			l0.2,0.1l0,0.2l-0.3,0.1c0.1,0,0.4,0,0.3-0.1l0.2,0c-0.2,0.2-0.5,0.2-0.6,0.5l0.2,0l0,0.1c-0.1,0.1-0.4,0.5-0.1,0.6l-0.3,0
			l0.2,0.2l-0.3,0c0,0.1,0,0.3,0.1,0.4c-0.1,0.1-0.3,0.2-0.2,0.4l-0.4,0l-0.1,0.3c0.1,0,0.3,0.1,0.4,0.2l-0.4,0l0.1,0.2l-0.4,0.1
			l-0.1,0.4l-0.2-0.1l0,0.3l0.2,0l-0.2,0.1c0,0.2,0,0.3-0.1,0.5l-0.1-0.1l-0.4,0c0.1,0.2,0,0.5,0,0.7l-0.3,0l0,0l0,0.1
			c-0.2,0.2-0.6-0.1-0.6,0.3c0.3-0.1,0.3-0.3,0.6-0.1c0,0.3-0.3,0.4-0.5,0.5l-0.1-0.3c-0.2,0.3-0.4,0.5-0.7,0.8l-0.2-0.1
			c0.1,0.3-0.1,0.5-0.3,0.6c-0.2,0-0.4,0.1-0.5,0.1l-0.1,0.4l-0.1-0.2l-0.3,0l0,0.2c-0.1,0-0.3,0.1-0.4,0.2l0.4,0.1
			c-0.1,0.1-0.2,0.2-0.3,0.3l-0.1-0.2l-0.2,0l-0.1,0.4l-0.1-0.2l-0.2,0c-0.2,0.3-0.3,0.6-0.6,0.8c0-0.1-0.1-0.3-0.1-0.4
			c0,0.2-0.1,0.3-0.1,0.5l3.9,0c0.3-0.1,0.5-0.2,0.8-0.3L304.1,50.6z M308.8,39.9c-0.1,0.1-0.2,0.1-0.3,0.1
			C308.5,39.9,308.7,39.9,308.8,39.9z M308.2,37.8c-0.1,0.1-0.2,0.1-0.3,0.1C308,37.8,308.1,37.7,308.2,37.8z M305.8,46.8
			c0.1,0.1,0.1,0.2,0.1,0.3C305.8,47,305.8,46.9,305.8,46.8z"/>
		<path class="st3" d="M283.9,49.1l-0.1,0.2l0.4,0C284.2,49.2,284.1,49.2,283.9,49.1z"/>
		<path class="st3" d="M280.9,48.4l0.2,0c-0.3-0.6,0.3-0.2,0.3,0l-0.1,0.1c0,0.3,0.3,0.5,0.5,0.8l0.2,0l0.1-0.1c0,0,0,0,0,0.1l0,0
			c0,0.1,0.1,0.3,0.2,0.4l0.2-0.1c0,0.2,0,0.3,0.1,0.5l0.2-0.1l-0.1,0.3c0.3-0.3,0.6,0.1,0.8,0.3c-0.1,0-0.3,0-0.4,0.1
			c0.2,0,0.4,0,0.6,0.1l-0.2,0.2c0.2,0,0.4,0.1,0.6,0.2l0,0c0.1,0,0.2,0.1,0.3,0.2c-0.1,0.1-0.2,0.2-0.3,0.4c0.6-0.3,0.4-0.1,1,0.1
			l-0.2,0.2c0.1,0,0.4,0,0.4-0.1l0,0.3l0.1-0.2c0.1,0.1,0.2,0.2,0.3,0.4c0.1,0,0.3,0.1,0.4,0.1c-0.1,0.1-0.3,0.1-0.4,0.2
			c0.2-0.2,0.8,0.1,0.9,0.3l0,0l0.2-0.2c0,0.1,0,0.1,0,0.2l3.7,0c0.1-0.1,0.1-0.2,0.1-0.2l0.3,0l0,0.2l0,0l-0.4,0c0,0,0,0,0,0
			l-3.7,0c0,0.1,0.1,0.2,0.1,0.2l0.3-0.1L287,53c0.3-0.1,0.5,0,0.7,0.2l-0.2,0.2c0.2-0.1,0.3-0.2,0.3-0.4c0.1,0.1,0.3,0.2,0.3,0.4
			c0.2,0,0.6-0.1,0.6,0.3l0.2-0.2l0.1,0c0.1,0.2,0.2,0.3,0.3,0.4c0-0.1,0-0.3,0.1-0.4c0,0.2,0.2,0.4,0.2,0.6l0.2,0l-0.1-0.2
			c0.1,0,0.3,0,0.4,0l-0.2,0.2c0.1,0,0.2,0,0.3,0.1c0.1-0.1,0.2-0.2,0.3-0.3c0,0.1,0,0.3-0.1,0.4l0.2-0.1l0.1,0.1
			c0.2,0,0.3-0.1,0.4-0.2c0,0.2,0,0.3-0.1,0.5c0.2-0.1,0.3-0.3,0.4-0.5l0.1,0.2l0.2-0.1l0,0.3l0.1-0.2l0.1,0.2l0.3,0l0.2-0.3
			l0.1,0.1l0.2-0.1c0,0.1,0.1,0.3,0.2,0.4l0-0.2c0.2,0,0.4,0,0.5-0.2c0,0.1,0,0.3-0.1,0.4l0.2-0.1l0.2,0l0.1,0.2
			c0.3-0.2,0.7-0.1,1-0.4l0.1,0.2l0.3,0l0-0.2l0.1,0.2l0.3,0l-0.2-0.2c0.2-0.2,0.6,0.1,0.7-0.2l0.1,0.2c0.1,0,0.3-0.1,0.4-0.1
			l0.1-0.3l0.1,0.2l0.3,0c0.1-0.2,0.3-0.2,0.4,0h0.3c0.3-0.2,1.1-0.3,1.1-0.8l0.3,0.2c0,0,0.7-0.5,0.5-0.1c0.2-0.1,0.3-0.3,0.4-0.5
			c0.3,0.2,0.4,0.1,0.5,0l0,0c0.1-0.1,0.3-0.2,0.6,0l0,0l-0.1-0.2c0.1-0.2,0.4-0.3,0.5-0.1l0-0.2l-0.2-0.1c0.4-0.1,0.6,0,1-0.1
			l-0.2-0.1v-0.3c0.2-0.1,0.4-0.1,0.5-0.3l0.2,0.2l-0.1-0.2c0.2-0.1,0.4-0.2,0.6-0.3l-3.9,0c0,0,0,0.1,0,0.1c-0.1,0-0.1-0.1-0.2-0.1
			l0,0c-0.1-0.1-0.1-0.1-0.2-0.2c0,0.1,0,0.1,0,0.2c0,0.1,0,0.2-0.1,0.2c0-0.1,0-0.2-0.1-0.2l-0.2,0l0,0.1l-0.1-0.1l-0.1-0.1l0,0.1
			l0,0.2l-0.4-0.1l0.1,0.1l-0.2,0.3l-0.2,0l0-0.1l0-0.3c0,0.2-0.2,0.3-0.3,0.5l-0.1-0.3l0,0.2l-0.3,0l-0.1,0.3l0-0.3l-0.3,0
			c-0.1,0.1-0.1,0.2-0.1,0.4l-0.1,0c-0.1-0.1-0.3-0.2-0.4,0l0-0.3l-0.1,0.2l-0.2-0.2l-0.3,0.3l-0.3-0.1l0.1-0.1l-0.1-0.2
			c0,0.1-0.1,0.3-0.2,0.4c-0.3-0.3-0.6,0.2-0.7,0.4c-0.1-0.1-0.3-0.2-0.2-0.4l-0.3-0.1l0.1-0.2l-0.3,0.3l-0.2-0.1l0.1,0.2l-0.2,0
			l0-0.2l-0.3,0c-0.1,0.1-0.3,0.2-0.4,0.4l-0.1,0c-0.1-0.1-0.2-0.3-0.3-0.4l0.1,0.2c-0.2,0.1-0.5,0.2-0.7,0.2l0.1-0.3
			c-0.1,0.1-0.4,0.2-0.5,0.1l0.2-0.1l0-0.3c-0.5,0.7-1-0.1-1.5-0.1c-0.1,0.1-0.4,0.2-0.5,0l-0.7,0c0.1-0.1,0.2-0.3,0.3-0.3
			c-0.2,0-0.3,0.1-0.3,0.3l-0.1-0.2l-0.2,0.2c0.1-0.4-0.5-0.3-0.7-0.5l-0.2,0c0,0.2-0.2,0.1-0.2,0l0,0c0-0.1,0-0.2,0.2-0.2l0-0.3
			c-0.1,0.1-0.2,0.3-0.3,0.4l-0.1-0.1l-0.1,0.1l-0.3,0l0.3-0.3l-0.2-0.1l-0.1,0.1l-0.3-0.2l-0.1,0.1c-0.1-0.1-0.2-0.2-0.3-0.3
			l-0.1,0.2c-0.1-0.1-0.3-0.1-0.4-0.2l0.1-0.1l-0.1-0.2l-0.1,0.2c-0.3-0.2-0.6-0.2-0.5-0.6l-0.3-0.2l-0.1,0.2l-0.1-0.2
			c-0.1-0.1-0.2-0.1-0.3-0.1l-0.4,0l0,0.1c0,0,0,0,0-0.1l-1.5,0l1.5,0c0-0.1,0-0.3,0.1-0.4c-0.3,0.1-0.4-0.3-0.7-0.3
			c0,0.1,0,0.3-0.1,0.4l0-0.4l-0.2,0c-0.1-0.2,0.1-0.3,0.2-0.5c-0.1,0-0.2,0.1-0.4,0.1l0,0.3l-0.2-0.1l0.1-0.2c-0.1,0-0.6-0.3-0.4,0
			c-0.2-0.2-0.4-0.4-0.1-0.6c-0.2,0-0.3,0.1-0.3,0.1c-0.1,0-0.2-0.1-0.4-0.1c0,0,0,0,0-0.1l-1.2,0l0,0.2
			C280.4,47.8,280.8,48,280.9,48.4z M293.1,53.4c0.1-0.1,0.2-0.1,0.3-0.1C293.3,53.4,293.1,53.4,293.1,53.4z M294.2,53.3l-0.3,0
			l0-0.2l0.3,0L294.2,53.3z M295.3,53.4c0.1-0.1,0.2-0.1,0.3-0.1C295.5,53.4,295.4,53.4,295.3,53.4z M295.6,53.3
			c0-0.1-0.1-0.2-0.1-0.3l0.2,0c0.1,0.1,0.2,0.1,0.2,0.3L295.6,53.3z M289.6,52.1c-0.1,0.1-0.2,0.1-0.3,0.1
			C289.4,52.1,289.5,52.1,289.6,52.1z M286.6,51.5l0-0.2c0.1,0.1,0.2,0.1,0.3,0.2L286.6,51.5z M282.1,48.4c0.1,0,0.2,0,0,0.3
			L282.1,48.4z"/>
		<path class="st3" d="M279.5,45.7c0,0,0,0.1,0,0.2l0,0l0,0c0,0,0,0.1,0,0.1l0,0l-0.1,0.2c0.1,0,0.2,0.1,0.3,0.1l0-0.4l0.2,0V46
			l0.1,0c-0.1-0.1-0.1-0.3-0.1-0.5l-0.2,0C279.7,45.6,279.6,45.7,279.5,45.7z"/>
		<path class="st3" d="M280.2,46l-0.2,0c0,0,0,0.1,0.1,0.1C280.1,46.1,280.2,46.1,280.2,46z"/>
		<path class="st3" d="M279.7,46.4L279.7,46.4L279.7,46.4c-0.1,0.1,0.1,0.3,0,0.5l0.1-0.1l0.2,0l-0.1,0.3l0.1-0.1
			c0.1,0.1,0.1,0.2,0.3,0.3l-0.2,0.1l0,0l1.2,0c-0.1-0.3,0-0.3,0-0.6l-0.3,0l0,0l0.1,0l0,0.2l-0.2,0l0,0.1c-0.1-0.1-0.1-0.2-0.2-0.2
			c0,0-0.1,0-0.1,0c0,0,0,0,0,0c-0.2-0.2-0.4-0.4-0.5-0.6c-0.1,0.1-0.2,0.2-0.2,0.3L279.7,46.4z"/>
		<path class="st3" d="M279.3,45.8l0.1,0.2l0-0.1c0,0,0,0,0,0L279.3,45.8L279.3,45.8L279.3,45.8C279.4,45.7,279.4,45.7,279.3,45.8
			l0.3-0.2l0,0c0-0.1-0.1-0.2-0.3-0.3l0.1,0.2l-0.4,0.1L279.3,45.8l-0.2,0.1L279.3,45.8z"/>
		<path class="st3" d="M279.9,46.3c0-0.1,0-0.2-0.1-0.3C279.8,46.1,279.8,46.2,279.9,46.3z"/>
		<path class="st3" d="M279.7,46.3L279.7,46.3L279.7,46.3C279.7,46.3,279.7,46.3,279.7,46.3z"/>
		<path class="st3" d="M279.4,45.7L279.4,45.7C279.4,45.7,279.4,45.7,279.4,45.7C279.4,45.7,279.4,45.7,279.4,45.7z"/>
		<path class="st3" d="M280.9,47L280.9,47l0.1-0.2l-0.1,0c0-0.1-0.1-0.2-0.1-0.2c-0.1,0-0.2,0.1-0.2,0.2c0,0,0,0,0.1,0.1
			C280.8,46.8,280.8,46.9,280.9,47z"/>
		<path class="st3" d="M307.4,28.7l0.2-0.2c-0.2,0-0.3,0-0.5,0C307.2,28.6,307.4,28.6,307.4,28.7z"/>
		<path class="st3" d="M306.8,28.4C306.8,28.4,306.8,28.4,306.8,28.4l0.1-0.2l-0.1,0c0,0,0,0.1-0.1,0.1
			C306.7,28.4,306.7,28.4,306.8,28.4z"/>
		<path class="st3" d="M302.1,26.2l0-0.3c-0.1,0-0.1-0.1-0.2-0.1c0,0.1,0.1,0.1,0.1,0.1c0,0-0.1,0.1-0.1,0.2L302.1,26.2z"/>
		<path class="st3" d="M307.4,28.8C307.4,28.8,307.4,28.8,307.4,28.8L307.4,28.8C307.4,28.8,307.4,28.8,307.4,28.8z"/>
		<polygon class="st3" points="307.2,28.5 307.2,28.5 307.2,28.5 		"/>
		<path class="st3" d="M283.9,33.4l0.2,0.1c-0.1,0.1-0.3,0.3-0.2,0.5l0-0.2c0.1,0,0.2,0,0.3,0.1l-0.1-0.1c0.1-0.2,0.2-0.4,0.2-0.6
			c0,0,0.1,0,0.1,0c0.1,0,0.3,0.1,0.5,0.1l-0.2-0.2l0-0.2l0.3,0c0-0.2,0-0.4,0.1-0.5l0.1,0.1c0.2-0.1,0.4-0.1,0.6-0.2l-0.3-0.1
			l0.1-0.3c0.1,0.1,0.1,0.1,0.2,0.1l0-0.2l0.2,0.2c0-0.2,0-0.4,0.1-0.5c0.1,0.1,0.1,0.1,0.2,0.1l0-0.2l-0.2,0
			c0.1-0.2,0.3-0.1,0.2-0.3c0.2-0.1,0.4,0,0.6,0l-0.1-0.1c0.2-0.5,0.5-0.3,0.8-0.3l-0.1-0.2l0-0.2c0.2-0.1,0.4-0.1,0.6,0.1
			c0.1-0.2,0.4-0.1,0.3-0.4c0.3-0.1,0.8-0.1,1-0.4l0.2,0l0,0.2l0.2-0.2l0.2,0.2l0-0.2c0.7-0.5,0.8,0.3,1.4-0.4l0.3,0
			c-0.1,0.1-0.1,0.2-0.1,0.2c0.1-0.1,0.3-0.3,0.4-0.3c0.1,0,0.1,0,0.1,0.1c0.1-0.1,0.3-0.1,0.4-0.2c0,0,0,0,0,0l0,0.1
			c0,0.1-0.1,0.2-0.1,0.3l0.1-0.2l0.1,0.2c0.1-0.1,0.3-0.3,0.4-0.3c0.1,0,0.3,0.3,0.5,0c0.1,0,0,0.3-0.1,0.4c0.2,0,0.7-0.2,0.8,0
			l0.1-0.1l0.1,0.1c0.2-0.1,0.7-0.5,0.8-0.1l-0.3,0l0,0.2c0.1,0,0.2,0.1,0.3,0.2l0.1-0.2c0.1,0.1,0.6,0.4,0.6,0.5
			c-0.1,0,0,0.3,0,0.3l0-0.2c0.2-0.1,0.4,0,0.6,0.2l0.2,0l0-0.2l0.3,0.2l-0.1,0.1l0.1,0.2l-0.1,0.2c0.1,0,0.5,0.1,0.4-0.1l0.5,0.6
			c0,0.1,0,0.2-0.1,0.2l0.2,0c0-0.1,0-0.3,0.1-0.4l0,0.4l0.3,0.1c-0.2-0.4,0.2-0.2,0.3-0.1l0,0.1c-0.1,0-0.2,0.1-0.3,0.2
			c0.1,0,0.2,0,0.3,0.1l0.1-0.1l0.3,0.1l-0.2,0.2c0.5,0,0.2,0.3,0.2,0.3l0,0.3l0.1-0.2c0.2,0,0.2,0.1,0.4,0.2l-0.1,0.1l0,0.3l0.2,0
			c0.1-0.1,0.2-0.2,0.4-0.1c-0.1,0.1-0.3,0.2-0.4,0.3l0,0.3l0.4,0.1l-0.1,0.2c0.4,0,0.2,0.3,0.1,0.3c0.1,0.1,0.2,0.3,0.4,0.3
			c0,0.1,0,0.1-0.1,0.1l0.1,0.1l0,0.2l-0.3,0.1c0.4,0,0.3-0.2,0.7,0.1l-0.3,0l0,0.3l0.2-0.1l0,0.2l-0.3,0c0.1,0.2,0.3,0.3,0.4,0.4
			l-0.1-0.2l0-0.3c0.1,0.1,0.4,0.3,0.4,0.4c0,0-0.3,0.4,0,0.3c-0.1,0.1-0.3,0.3-0.4,0.4l0.2-0.1l0.3,0.2l0,1c-0.4,0,0.2,0.5-0.1,0.6
			c0.1,0.1,0.1,0.3,0.1,0.5c0.1-0.1,0.2,0,0.3,0.1l-0.3,0l0,0.4c0.1,0,0.2,0,0.3,0.1c-0.2,0.1-0.4,0.2-0.6,0.2
			c0.3,0.6,0.2,0.7,0.2,1.3c-0.1-0.1-0.1-0.1-0.2-0.1l0.2,0.1c-0.1,0.1-0.2,0.2-0.3,0.4l0.3,0.1c-0.1,0.1-0.2,0.3-0.4,0.3
			c0,0.1-0.1,0.4,0.1,0.3l-0.2,0.2l-0.2-0.2c-0.1,0.2-0.3,0.3-0.3,0.5c0.1,0,0.2-0.1,0.2-0.2c0,0,0,0.1,0,0.1c0,0.1-0.3,0.4-0.4,0.5
			l0.2-0.1l0.3,0c-0.1,0.1-0.1,0.2-0.2,0.4L300,43c0,0.2,0.6,0.5,0.1,0.7l-0.1-0.3l-0.1,0.2l0.1,0.1l0,0.3l-0.2-0.2l0.1,0.3l-0.3,0
			l0.2,0.1l0,0.2c-0.4,0.1-0.6,0.5-0.7,0.8c0.1-0.1,0.2-0.1,0.2-0.2c0.2,0.3-0.1,0.4-0.2,0.6l-0.1-0.2l-0.1,0.2l-0.2-0.2l0,0.3
			L299,46c0,0.2-0.4,0.2-0.3,0.5c-0.1,0-0.1,0-0.2,0c-0.1-0.1-0.2-0.1-0.3-0.2l0.1,0.2c-0.2,0.3-0.2,0.6-0.5,0.8l0-0.3l-0.3,0
			c0.4,0.5,0.1,0.5-0.2,0.8c-0.1-0.1-0.1-0.1-0.2-0.2L297,48l0.2-0.1l0,0.2l-0.3,0c0,0.1,0,0.3-0.1,0.4c0-0.1-0.1-0.3-0.2-0.4
			l-0.1,0.3l-0.2-0.1l0.1,0.1c-0.1,0.1-0.1,0.3-0.3,0.5l0.2-0.1l0.1,0.1l0.4-0.1l-0.4-0.1l0.2-0.3c0.1,0,0.1,0.1,0.1,0.2l0.2,0
			c0.1-0.2,0.5-0.3,0.6-0.6l0.2,0.2l-0.1-0.2c0.2-0.1,0.4,0,0.6,0.1l-0.1-0.2l0.1-0.1l-0.1-0.2c0.1-0.2,0.3-0.2,0.5-0.2
			c0-0.1,0.1-0.3,0.2-0.4c0,0.1,0,0.3,0.1,0.4l0.1-0.4l0.2,0.1c0.1-0.2,0.2-0.2,0.2-0.4c-0.1,0-0.3,0-0.4-0.1
			c0.3-0.1,0.6-0.1,0.7-0.4l0.2,0.1c0-0.1,0.1-0.2,0.2-0.2c-0.1-0.1-0.2-0.4-0.1-0.6l0.3,0.3l0.3,0c0-0.2-0.1-0.3,0-0.5l0.2,0.1
			c0-0.2,0.2-0.3,0.3-0.4c-0.2-0.2-0.1-0.4,0-0.6l0.1,0.1l0.3-0.1l-0.3-0.1c0.1-0.4,0.5-0.7,0.8-1l-0.1-0.1l0.1-0.1l-0.1-0.2l0-0.2
			l0.1,0.1l0.3,0c0.1-0.1,0.1-0.2,0.1-0.3l-0.2,0.2c-0.1-0.1-0.2-0.2-0.2-0.4l0.3,0c0-0.1-0.1-0.2-0.1-0.3c0-0.1,0.3-0.5,0.4-0.5
			c0.1,0,0.1,0,0.1,0.1l0.2-0.2l-0.1,0.1c-0.3-0.2-0.3-0.3-0.2-0.7c0.1,0,0.1,0.1,0.1,0.2l0.2,0l0-0.3l-0.2,0
			c0.1-0.1,0.1-0.2,0.2-0.3l-0.1-0.1c0.2,0.1,0.1-0.7,0.1-0.9c0-0.2-0.4-0.2,0.3-0.9l-0.2,0.1c-0.1-0.2-0.1-0.4,0.1-0.5l-0.2-0.2
			c0.1-0.1,0.2-0.3,0.3-0.5l-0.3-0.1l0-0.3l0.3-0.1l-0.4-0.1l0.1-0.1l-0.1-0.2c0.1-0.1,0.2-0.2,0.3-0.2c-0.1-0.1-0.3-0.4-0.2-0.5
			l-0.2,0c0.1-0.1,0.1-0.2,0.2-0.2l-0.1-0.3l-0.1,0.1l-0.3,0l0.3-0.3l-0.3-0.1c0.1-0.1,0.1-0.3,0.3-0.5l-0.4,0l0.1-0.1l-0.1-0.1
			l0.2-0.2l-0.2-0.1l0.1-0.1c0-0.3-0.3-0.4,0-0.7l-0.2,0.1l-0.3,0l0.2-0.2c-0.3,0-0.5-0.2-0.2-0.4c-0.1,0-0.3-0.1-0.4-0.2
			c0,0.1,0.1,0.2,0.2,0.2c-0.1,0-0.3,0.1-0.4,0.2c0,0,0,0,0,0l0-0.1c0-0.1,0-0.1,0.1-0.1l0-0.4l-0.3-0.1c0-0.1,0.1-0.1,0.2-0.1
			l0-0.2c0,0-0.2-0.1-0.2-0.2c0.1-0.1,0.1-0.2,0.2-0.3l-0.2,0.1c-0.1-0.1-0.3-0.1-0.4-0.1l0-0.3l-0.4,0c0.1,0,0.2-0.1,0.2-0.2
			l-0.2,0.2l-0.2-0.2c0.2,0.1,0.1-0.4,0.1-0.5l-0.1,0.1c-0.2-0.1-0.2-0.4-0.5-0.6l0.1-0.1l0-0.3c-0.2,0.2-0.4,0.2-0.4-0.1l-0.2,0
			l0-0.3l-0.2,0.1l0.1-0.4c-0.1,0.1-0.5,0.4-0.7,0.1l0.3,0c0-0.1,0.1-0.3,0.1-0.4l-0.2,0c0.1,0.1,0,0.2-0.1,0.3l0-0.3
			c-0.1,0-0.3,0-0.3,0.1c-0.1-0.1-0.2-0.3-0.2-0.4l-0.1,0.2l-0.1,0c0,0,0-0.1,0-0.1c0-0.1,0-0.2,0.1-0.2c-0.1,0-0.3,0-0.4-0.1
			c0.1,0,0.2-0.1,0.3-0.2l-0.3,0c0,0.3-0.4,0.2-0.4-0.1c0-0.1,0-0.1,0.1-0.1l-0.2-0.3l-0.1,0.4c-0.2-0.1-0.3-0.4-0.3-0.6
			c-0.1,0.1-0.4,0.1-0.5,0l-0.1,0.4c-0.1-0.1-0.4-0.4-0.1-0.4c-0.3-0.1-0.6,0.1-0.6-0.3l0.1-0.1c-0.1,0.1-0.3,0.1-0.5,0.1
			c0.2,0.5-0.2,0.3-0.3,0.1c0.1-0.1,0.2-0.2,0.3-0.4l-0.3,0c0,0.1-0.1,0.2-0.2,0.3l-0.3-0.1l0.2-0.1l0-0.3l-0.2,0l0,0.2
			c-0.4,0.2-0.4-0.1-0.5-0.3l0.1-0.1c-0.2,0-0.2,0.3-0.4,0.4c0-0.1-0.1-0.3-0.2-0.4c-0.3,0.3-0.4,0-0.6,0c-0.3,0-0.4,0.5-0.8,0
			c0,0.1-0.1,0.2-0.2,0.2l0-0.3l-0.2,0c0.1,0.3-0.2,0.3-0.3,0.5c-0.1-0.1-0.2-0.1-0.4-0.2l0.1-0.1l-0.1-0.2c0,0.2-0.1,0.3-0.2,0.5
			l-0.3,0c0-0.1-0.1-0.3-0.1-0.4c-0.1,0.1-0.1,0.3-0.3,0.4l0-0.3c-0.2,0.1-0.7,0-0.7,0.3c-0.1-0.1-0.1-0.2-0.2-0.3
			c-0.5-0.1-0.5,0.4-0.8,0.7l0.1-0.4c-0.1,0.1-0.3,0.2-0.5,0.2l0.1,0.2l0,0.2l-0.1-0.1l-0.3,0l-0.1,0.3l-0.2-0.2l0.1,0.2
			c-0.1,0.1-0.4,0.3-0.5,0.1l0.2,0.3c-0.1,0.1-0.2,0.2-0.4,0.2c-0.1-0.1-0.2-0.3-0.3-0.4c0,0.3,0.3,1.1-0.5,1.2l0.1,0.1
			c0,0.5-0.7,0.1-0.7,0.5c0.1,0,0.2-0.1,0.2-0.2c0,0,0,0.1,0,0.1c0,0.4-0.4,0.8-0.8,1c0,0.1,0,0.3,0.1,0.3l-0.5-0.1
			c0.1,0.2,0.3,0.4,0.4,0.6l-0.3,0c0,0.2,0.1,0.3,0.2,0.5l-0.3,0c0,0.2-0.3,0.6,0,0.8l-0.3,0c0,0.1-0.1,0.3-0.1,0.4l0.3,0.1
			C284.1,33.4,284,33.4,283.9,33.4z"/>
		<path class="st3" d="M301.5,60.2c0.1,0,0.2-0.1,0.3-0.2C301.7,60,301.6,60.1,301.5,60.2z"/>
		<path class="st3" d="M298.7,58.1c0.1,0,0.2,0,0.3-0.1C298.9,58,298.7,58,298.7,58.1z"/>
		<path class="st3" d="M296.6,58.4c0,0,0.1,0.1,0.2,0.1C296.8,58.4,296.7,58.4,296.6,58.4z"/>
		<path class="st3" d="M300.1,57.9l0.6,0l-0.1-0.1C300.5,57.9,300.3,57.9,300.1,57.9z"/>
		<path class="st3" d="M309.9,55c0,0,0.1,0.1,0.2,0.1C310.1,55.1,310,55,309.9,55z"/>
		<polygon class="st3" points="302.6,56.9 302.6,56.9 302.6,56.9 		"/>
		<path class="st3" d="M282.3,54.2c0-0.1,0-0.1,0.1-0.1l-0.5,0c-0.1-0.2-0.6-0.6-0.2-0.8c-0.2,0.1-0.3,0.3-0.4,0.4
			c-0.1-0.2-0.3-0.3-0.6-0.5L281,53l-0.2,0c-0.1-0.2-0.2-0.5-0.3-0.6c0,0-0.1,0-0.1-0.1l0.2-0.2c-0.2-0.1-0.5,0-0.7-0.2l0.1-0.1
			l-0.1-0.4l-0.1,0.4l-0.1-0.2l-0.2,0l0-0.3l-0.3-0.1l0.2-0.2l-0.3,0l0-0.5l0-0.1l-0.1,0.1l-0.2,0.1c0,0,0-0.1,0-0.1l-2.5,0
			c0.1,0.1,0.1,0.2,0.2,0.3l-0.2,0.1c0.2,0.2,0.5,0.3,0.4,0.7l0.3-0.2c0,0.1,0.1,0.3-0.1,0.3c0.1,0.2,0.3,0.3,0.4,0.4l-0.2,0.3
			l0.2-0.2l0,0.2l0,0.1l0.3,0c-0.1,0.1-0.2,0.2-0.3,0.3c0.1,0,0.3-0.1,0.3-0.3l0.1,0c0,0.1,0.1,0.3-0.1,0.2c0.1,0.1,0.6,0.5,0.3,0.6
			l0.2,0c0.2,0.3,0.4,0.6,0.6,0.8L282.3,54.2z M280.3,52.8c-0.1-0.1-0.1-0.2-0.1-0.3C280.3,52.5,280.3,52.7,280.3,52.8z"/>
		<polygon class="st3" points="310.1,50.8 310.1,50.8 310.1,50.8 		"/>
		<path class="st3" d="M313.7,45l-0.2,0l0.2,0.2C313.7,45.1,313.7,45,313.7,45z"/>
		<path class="st3" d="M313.2,45c0,0.1-0.1,0.1-0.1,0.2L313,45l0,0l0,0l0.1,0.2c-0.1,0.1-0.1,0.3-0.1,0.4l-0.3,0.1l0.3,0
			c-0.2,0.1-0.2,0.4-0.4,0.5l0.1,0.1l0,0.2c-0.2,0.1-0.4,0.1-0.4,0.3l0.2-0.2l0.1,0l0,0.3c-0.1,0.1-0.2-0.1-0.4-0.1l0.1,0.1
			c0,0.3-0.1,0.5-0.3,0.8c0.1-0.1,0.3,0,0.3,0.2c-0.2,0-0.3,0-0.5,0.1l-0.1,0.4l-0.1-0.2l-0.3,0.3c0.1,0.1,0.2,0.4,0,0.5l-0.2-0.3
			c-0.1,0.4-0.5,0.8-0.7,1.2l0.2,0c-0.1,0.2-0.1,0.3-0.3,0.4l0,0c-0.1,0.1-0.2,0.2-0.2,0.2c0.1,0.1,0.1,0.2,0.1,0.3
			c-0.1-0.1-0.1-0.2-0.1-0.3c-0.2,0.2-0.5,0.3-0.7,0.3l-0.1,0.3l-0.2-0.1c0.2,0.2,0.1,0.5,0.1,0.7l-0.4,0c0,0.1,0,0.3-0.1,0.4l0,0
			c-0.1,0.1-0.2,0.1-0.3,0.1l-0.1,0.3l-0.2-0.2c0,0.2,0,0.4-0.1,0.6L308,53l-0.1,0.2l0.1,0.2l-0.4,0.1l-0.1,0.3l-0.2-0.1l0,0.3
			l-0.2-0.2c0,0-0.2,0.7-0.3,0.4l-0.2,0.1l-0.3,0.3l0.3,0l0-0.2l0.2,0c-0.2,0.4-0.7,0.3-1.1,0.9l-0.2-0.2l0.1,0.2
			c-0.2,0.1-0.3,0.2-0.4,0.4l-0.1-0.2l-0.3,0c0.1,0.1,0.2,0.2,0.3,0.2l-0.3,0.2l-0.1-0.2c-0.3,0.2-0.5,0.4-0.7,0.6
			c-0.6,0-0.3-0.3-0.6,0.5c-0.1-0.1-0.3-0.2-0.4-0.3l0,0.2c-0.1,0-0.2,0.1-0.3,0.2c0.1,0,0.3-0.1,0.4-0.1c0,0.1,0.1,0.1,0.2,0.1
			l0,0.3c-0.1,0-0.1-0.1-0.3-0.1c-0.1,0-0.1,0.1-0.3,0.1l0-0.3c-0.1,0.2-0.2,0.5-0.4,0.6l0-0.3l-0.3,0c0,0.2-0.1,0.3-0.2,0.4
			l-0.2-0.1l0,0.2l-0.1,0l-0.2-0.1l-0.4,0.4l-0.1,0l0,0l-0.6,0c-0.1,0-0.1,0-0.2,0l0,0c-0.1,0-0.1,0-0.1-0.1l0,0.1l0,0.2l-0.1-0.1
			c-0.3,0-0.6,0.4-0.9,0.4l-0.1-0.1c-0.1,0.1-0.8,0.4-0.8,0.1c-0.1,0.1-0.2,0.3-0.3,0.4l-0.1-0.1l-0.1,0.1l-0.4-0.4
			c0,0.1-0.3,0.5-0.5,0.5c-0.1,0-0.1,0-0.1-0.1l-0.1,0.1l-0.2-0.2c-0.2,0.2-0.7,0.2-0.9,0l0,0.2c-0.2,0-0.4,0.1-0.5-0.1l-0.1,0.1
			l-0.2-0.1l-0.1,0.3c0-0.2-0.2-0.4-0.3-0.6l-0.1,0.3l-0.1-0.1l-0.3,0c-0.1,0.6-0.7-0.1-0.8,0.2l0-0.2c0.1-0.1,0.2-0.1,0.3-0.2
			l-0.3,0l-0.2,0.3l0-0.3c-0.1,0-0.3,0.2-0.3,0.3c-0.1-0.1-0.3-0.2-0.4-0.3c-0.1,0.2-0.2,0.4-0.3,0.6c-0.1-0.1-0.2-0.5,0-0.5
			c-0.1-0.2-0.5-0.1-0.7-0.1c-0.1-0.1-0.2-0.3-0.3-0.4l-0.2,0l-0.2,0.3l-0.2-0.3l-0.3,0l-0.1,0.2l0-0.3c-0.2,0-0.5,0.3-0.6-0.1
			c0,0,0,0,0-0.1l-0.1,0.1l-0.1,0l-0.3,0l0,0l0.2-0.2c-0.1,0-0.2,0.1-0.3,0.2c0,0,0,0,0,0c0,0-0.1,0-0.1,0l0,0c-0.1,0-0.2,0-0.3-0.1
			l0-0.3c-0.1,0-0.6-0.1-0.6,0.1l0-0.1l0.1-0.3l-0.3-0.1l0.2-0.2c-0.2,0.1-0.4,0.3-0.5,0.4l0-0.1l0.2-0.2l-0.5,0
			c0-0.2-0.2-0.3-0.2-0.5l-0.1,0.1l-0.2-0.1l0.1,0.2l-0.2,0l-0.1-0.2l-0.1,0.2c-0.2-0.1-0.3-0.4-0.4-0.6c-0.2,0.3-0.4-0.2-0.5,0.1
			l-0.1-0.3c-0.3,0.1-0.4-0.2-0.5-0.4l0.3-0.3c-0.2,0-0.4,0.1-0.6,0.1l-0.1,0.3l0-0.4c-0.1,0-0.4,0-0.4,0.1c-0.3-0.3,0-0.4,0-0.7
			l-0.2,0.2c-0.3,0-0.3-0.2-0.1-0.4l-0.3,0.1l0-0.3l-0.1,0.2c-0.1,0-0.2-0.2-0.3-0.3l-3.6,0c0.1,0.1,0.2,0.3,0.3,0.4l-0.1,0.1
			l0.1-0.1c0.2,0.2,0.5,0.4,0.7,0.7l-0.3,0.1c0.3,0,0.5-0.1,0.8-0.1c0.1,0.2,0.2,0.4,0.3,0.6l0.3,0l0.1,0.4l0.3,0.1
			c-0.1,0.1-0.1,0.2-0.2,0.3c0.3,0,0.5,0,0.8,0.1l-0.2,0.2l0.2-0.2l0.1,0c0.1,0.1,0.2,0.1,0.3,0.2l-0.1,0.1l0,0.3c0.2,0,0.3,0,0.5,0
			l-0.1,0.2c0,0,0.3,0.2,0.5,0.3l0,0c0.1,0,0.2,0.1,0.2,0l0,0c0,0,0,0,0-0.1c0,0,0,0.1,0.1,0.1l0,0c0.1,0.2,0.2,0.4,0.3,0.6
			c0.1-0.1,0.3-0.1,0.3-0.2c0,0.2,0,0.4,0.2,0.5c0.3-0.2,0.5,0,0.7,0.2l-0.1,0.2c0.1-0.1,0.4-0.2,0.4,0l0.4-0.3l0,0.1l-0.2,0.2
			c0.6,0.3,0.5-0.1,0.8,0.1l-0.1,0.1c0,0.4,0.6,0.2,0.8,0.3l0,0l-0.1,0.2c0.1,0,0.2-0.1,0.3-0.2l0,0c0,0,0-0.1,0-0.1
			c0,0,0.1,0.1,0.1,0.1l0,0c0.1,0.1,0.2,0.1,0.3,0.2c0-0.1-0.1-0.2-0.1-0.2l-0.2,0l0.2,0c0-0.2,0.1-0.1,0.2,0
			c0.1,0.1,0.3,0.3,0.3,0.4l0.1-0.4c0.1,0.1,0.3,0.4,0.1,0.4l0.3,0l-0.1,0.3l0.1-0.1l0.1,0.1c0.2-0.1,0.3-0.3,0.5-0.4
			c0.1,0.2,0,0.3-0.1,0.4l0,0.3c0.2-0.2,0.4-0.2,0.6-0.3l0.1,0.3c0.1-0.1,0.3-0.2,0.4-0.3l0.3,0l-0.3,0.3l0.3,0.2l-0.2-0.2
			c0.1-0.1,0.2-0.1,0.3-0.2c0.1,0,0.3,0.1,0.4,0.2l-0.2,0.2l0.2-0.1c0.2,0,0.4,0.1,0.6,0.1l-0.1,0.3c0.2-0.1,0.6-0.2,0.7-0.4l0.2,0
			l-0.1,0.1l0.1,0.3c0-0.6,0.3-0.2,0.6,0c0.1-0.1,0.3-0.1,0.3-0.3c0.5,0.6,1-0.1,1.1,0.3l0.2-0.1l-0.1-0.2c0.2-0.1,0.6,0.1,0.8,0.1
			c0,0.1-0.1,0.2-0.2,0.3c0.2-0.1,0.3-0.2,0.4-0.4l0.2,0.3l0.1-0.3l0.1,0c0.2,0.6,0.4,0.1,0.7-0.1l0,0.4l0.3,0l-0.2-0.1l0.2-0.3
			l0.1,0l0.1,0.3c0.2-0.1,0.3-0.3,0.4-0.4c0.1,0.1,0.3,0.1,0.4,0.2l0.1-0.1l0.2,0.1l0-0.2c0.1-0.1,0.2-0.2,0.4-0.2
			c0,0.1,0.1,0.3,0.1,0.4c0-0.2,0.2-0.3,0.2-0.4l0.2,0.2l0-0.2c0.1,0,0.3-0.1,0.2,0.1c0.1-0.1,0.3-0.1,0.4-0.2l0.1,0.2l0.2-0.1
			l0.2,0.3c0.1-0.3,0.7-1,0.9-0.6l0-0.4l0.3,0.1l-0.2,0.2c0.2-0.1,0.3-0.2,0.4-0.3l0,0c0,0,0-0.1,0.1-0.1l0.3,0l0,0.1l0.1,0.2
			c0-0.1,0.1-0.2,0.1-0.2l0,0c0.1-0.1,0.2-0.2,0.3-0.4l0.2,0l0.1,0.3c0-0.1,0.1-0.3,0.2-0.4l0.2,0.1c0-0.2,0.1-0.4,0.2-0.5l0.1,0.2
			c0.1-0.1,0.5-0.5,0.5-0.2l0.1-0.1l0.1,0.1c0.2-0.1,0.4-0.2,0.6-0.4l0.2,0.2c-0.2-0.6,0.3-0.9,0.7-0.6l0-0.2l0-0.2l0.1,0.2l0.3,0
			l0.2-0.3l0.2,0.1c0.1-0.3,0.2-0.6,0.6-0.6l0.1,0.1l-0.1-0.1l0.2-0.3l0.2,0.1l0.1-0.1l-0.1-0.1l0-0.3c0.1,0.1,0.2,0.2,0.3,0.3
			c0-0.6,0.7-0.4,0.8-0.9l0.2,0.2l0-0.4c0.2-0.2,0.3-0.3,0.5-0.6l0.2,0c-0.2,0-0.1,0.2,0,0.2c0.1-0.4,0.4-0.6,0.6-1l0.1,0.2l0.4,0
			l-0.1-0.3l0-0.1l0.3,0c0-0.1-0.3-0.6,0-0.5l0.2,0.1c0-0.2,0.1-0.3,0.3-0.4c0,0.1,0,0.3-0.1,0.4c0.2-0.1,0.3-0.4,0.1-0.6l0.3-0.3
			l0.2,0.1c0-0.1,0-0.4-0.1-0.3c0.1-0.1,0.2-0.2,0.4-0.3l0-0.1l0-0.4c-0.4,0,0-0.5,0.2,0l-0.2-0.3c0.1-0.3,0.2-0.4,0.5-0.3
			c-0.3-0.4-0.2-0.6-0.1-0.8l0,0c0-0.1,0.1-0.3,0.1-0.5l-0.3-0.1c0.1,0,0.3-0.1,0.4-0.2l-0.2-0.3l0.2-0.1l-0.1-0.2
			c0.3-0.4,0.5-0.7,0.5-1.2l-0.1-0.1l0.1-0.1l-0.1-0.1l0.1-0.1l-0.1-0.1l0.1-0.3l0.2,0.2c0-0.1,0.1-0.3,0.1-0.4l-0.3-0.1l0.3-0.3
			l-0.1-0.1c0.1-0.1,0.1-0.3,0.2-0.4l-0.1-0.3c-0.2,0.3-0.5,0.1,0-0.2l0.1,0.1l-0.1-0.1l0.1-0.2l-0.2-0.1l0.1-0.2L313.2,45z
			 M279.1,54.5c-0.1-0.1-0.2-0.2-0.2-0.3l0.2,0L279.1,54.5z M279.7,55.1l0-0.2c0.1,0.1,0.2,0.1,0.4,0.1L279.7,55.1z M290.9,60.9
			c0.1-0.1,0.2-0.1,0.3-0.1C291.1,60.9,291,60.9,290.9,60.9z M296,61.2c-0.1-0.1-0.1-0.2-0.1-0.3C296,61,296,61.1,296,61.2z
			 M294.6,58.9c0.1,0.1,0.1,0.2,0.1,0.3C294.6,59.1,294.6,59,294.6,58.9z M293.8,58.8c-0.1,0.1-0.2,0.1-0.3,0.1
			C293.5,58.8,293.7,58.8,293.8,58.8z M290.9,58.7c-0.1,0.1-0.2,0.1-0.3,0.1C290.7,58.7,290.8,58.7,290.9,58.7z M290.5,58.3l0,0.4
			c-0.1-0.1-0.2-0.3-0.2-0.4L290.5,58.3z M286.2,56.8l0,0.3c-0.1-0.1-0.2-0.2-0.3-0.3L286.2,56.8z M284,58.3l-0.3,0l0-0.2l0.3,0
			L284,58.3z M304.5,58.7l0-0.3l0.4,0C304.7,58.5,304.6,58.5,304.5,58.7z M309.7,54.5l-0.3,0l0-0.2l0.3,0L309.7,54.5z M310.9,49.3
			l0.3,0l0,0.2l-0.3,0L310.9,49.3z M311,49.8c-0.1-0.1-0.1-0.2-0.1-0.3C311,49.6,311,49.7,311,49.8z M312.6,48.7
			c0.1-0.1,0.2-0.1,0.3-0.1C312.9,48.7,312.7,48.7,312.6,48.7z"/>
		<path class="st3" d="M278.7,50.5c-0.1-0.4-0.1-0.9-0.5-0.9l0.2-0.1c-0.1-0.1-0.3-0.3-0.3-0.5l-0.2,0c-0.1-0.1-0.1-0.3-0.3-0.3
			l0.1-0.1l0-0.3l-0.3-0.2l0.3-0.2c-0.2,0-0.4,0-0.5-0.1l0.1-0.2c-0.1,0.1-0.2,0-0.3-0.1l0.3,0l0-0.4l-0.3,0l-0.1,0.2
			c-0.2,0,0.1-0.4,0.1-0.4c0-0.3-0.4-0.2-0.5-0.3l0.4,0l0-0.3c-0.1-0.1-0.3-0.1-0.4-0.2l0.3,0l0-0.3l-0.5,0c0-0.1,0-0.3,0.1-0.4
			l-0.1,0.1l-0.3,0c0.1-0.1,0.1-0.2,0.2-0.3l0,0c0,0,0,0,0,0l0,0l0.2,0.2l0.1-0.2l0.1-0.1l-0.1,0.1c-0.2-0.1-0.3-0.3-0.3-0.5
			l-0.2,0.1l0-0.2l0.2-0.2c-0.3,0.1-0.2-0.2-0.1-0.1c-0.1-0.2-0.5-0.6-0.1-0.8l-0.2,0.1l-0.2-0.2c0-0.2,0.2-0.3,0.2-0.5
			c0-0.2-0.1-0.4-0.1-0.7c-0.1,0-0.3,0-0.4-0.1l0.3,0l-0.2-0.2l0.2-0.1c-0.4-0.3-0.2-0.3-0.2-0.6l-0.1-0.1c0.1-0.1,0.2-0.2,0.3-0.3
			c-0.6,0-0.2-0.4,0-0.6l-0.3,0l0.1-0.1c-0.1-0.1-0.1-0.2-0.1-0.3l-1.5,0l1.5,0c0-0.1,0-0.1,0-0.2l0.2,0.1l0-0.3
			c-0.1,0-0.3-0.1-0.4-0.2c0.1-0.5,0.2-0.5,0-0.9l0.2-0.1c-0.1-0.2-0.1-0.3-0.2-0.4l0-0.2l0.2,0c-0.1-0.1-0.2-0.4,0-0.5
			c-0.4,0.3-0.2-0.1-0.1-0.3l-0.1-0.2l0.4-0.5l-0.3-0.1l0.1-0.3l0.3,0c-0.1-0.1-0.1-0.4-0.4-0.3l0-0.1c0.1-0.2,0.3-0.4,0.5-0.4
			c-0.1-0.2-0.2-0.3-0.4-0.4l0.3,0c0-0.1,0-0.3,0.1-0.4l-2,0l0,0.3l-0.2-0.2c0,0.1,0.2,0.3,0.3,0.4l-0.4-0.1
			c0.1,0.1,0.1,0.3,0.2,0.4l-0.2,0.1c0,0.1,0,0.4,0.1,0.3c-0.1,0.1-0.1,0.3-0.3,0.3c0.1,0,0.3-0.2,0.3-0.3c0.1,0.2,0,0.3-0.2,0.4
			l0.1,0.1c-0.1,0.2-0.3,0.4-0.5,0.5l0.2,0c-0.1-0.4,0.5,0.1,0,0.1l0.2,0.1c-0.1,0.2-0.2,0.3-0.3,0.4l0,0.3c0.4,0,0.4,0.3,0.1,0.3
			l0,0.2l0.2,0l0,0.2l-0.3,0l0.1,0.1l-0.1,0.1c0,0.1,0,0.4,0.1,0.3l-0.2,0.2h0.2c-0.1-0.4,0.5,0.1,0,0.1l0.2,0.1
			c0,0.1-0.1,0.2-0.1,0.3l0,0c-0.1,0.1-0.1,0.2,0.1,0.4l0,0.2l-0.3,0.1c0.3,0.5,0.4,0.4,0.1,1l0.3,0.1c0,0.2-0.1,0.3-0.3,0.4
			l0.2,0.1l-0.2,0.2l0.2-0.1l0.2,0l-0.2,0.2l0,0.3l0.2,0l0,0.2l-0.2,0c0,0.2,0.1,1,0,1.1l0.2,0.3l-0.2,0.2c0.3,0,0.3-0.2,0.6,0.1
			l-0.1,0.3l-0.2-0.1c0,0.1,0.2,0.4,0.2,0.6l0,0c0,0.1,0,0.2-0.1,0.2c0.4,0.5,0.1,0.3,0.1,0.8l0.2-0.2l0.3,0.2l-0.1,0.2l-0.2-0.1
			l0.3,0.3l-0.1,0.2l0.4,0.1l-0.2,0.1l0.2,0.2l-0.2,0.1c0,0.1,0,0.3-0.1,0.4l0.1,0.3l0.2-0.2l0,0.4c0.1,0,0.4,0,0.4-0.1
			c0,0.1,0.1,0.3-0.1,0.3c0.1,0.2,0.1,0.4,0,0.6l0.4,0c0.1,0.2,0.3,0.5,0.1,0.7c0.3-0.1,0.2,0.2,0.1,0.1c0.1,0.1,0.3,0.2,0.4,0.3
			l-0.1,0.1l0,0.3c0.2,0,0.3,0.2,0.4,0.3L278.7,50.5z M274.7,47.3c-0.1-0.1-0.1-0.2-0.1-0.3C274.7,47.1,274.7,47.2,274.7,47.3z"/>
		<path class="st3" d="M275.6,50.4c0.1,0,0.2,0,0.3-0.1C275.8,50.3,275.7,50.4,275.6,50.4z"/>
		<path class="st3" d="M275.6,43.1c0.2-0.2,0.1-0.3,0-0.3L275.6,43.1z"/>
		<path class="st3" d="M313.5,45l0.2,0c-0.1-0.1-0.2-0.1,0-0.5c-0.1,0-0.2,0-0.3-0.1l-0.3,0.1l0,0.3l0.2,0c0,0.1-0.1,0.1-0.1,0.2
			L313.5,45L313.5,45L313.5,45z M313.4,44.7c-0.1-0.1-0.1-0.2-0.1-0.3C313.4,44.5,313.4,44.7,313.4,44.7z"/>
		<path class="st3" d="M312.9,44.5c0,0.1-0.1,0.2-0.2,0.4c0.1,0,0.2,0,0.3-0.1C313,44.7,313,44.4,312.9,44.5z"/>
		<path class="st3" d="M278,24.8c0.1,0,0.1,0.1,0.2,0.1C278.2,24.8,278.1,24.8,278,24.8c0.1-0.1,0.1-0.2,0.2-0.3
			c-0.1,0.1-0.4,0.1-0.6,0.2c0.2,0.1,0.2,0.2,0.4,0.3C277.9,24.9,277.9,24.8,278,24.8z"/>
		<path class="st3" d="M275.5,28c-0.1,0-0.2,0-0.3,0.1C275.3,28.1,275.4,28.1,275.5,28z"/>
		<path class="st3" d="M275.5,33.2c0.1,0,0.3,0,0.4,0.1c0-0.2,0-0.6,0.3-0.6l0-0.2l-0.3,0c0.2-0.2,0.1-0.4,0-0.6l0.3-0.1l-0.2-0.3
			l0.2-0.3c-0.1,0.1-0.2,0-0.3-0.2l0.3,0c0-0.1,0.1-0.2,0.1-0.4l-0.3,0l-0.1,0.3l0-0.4c0.1,0,0.3-0.1,0.4-0.1l-0.3-0.1l0-0.2l0.1,0
			l0.2,0.1l0.1-0.1c-0.3-0.3-0.3-0.5,0-0.8l0.1,0.3l0-0.3c-0.2,0.1,0-0.3,0-0.4l-0.2,0c0.2-0.3,0.4-0.5,0.5-0.8
			c-0.3,0.3-0.5,0.1,0-0.2l0.1,0.1l-0.1-0.1l0.1-0.1l-0.1-0.1l0.1-0.1l-0.1-0.1c0.1-0.3,0.6-1,0.3-1.3c0.2-0.2,0.3-0.2,0.2-0.5
			l0.3,0c0-0.1,0-0.3-0.1-0.4l0.1-0.1l-0.1,0.1l-0.2-0.1l0,0.4l-0.3,0l0.2,0.1c0,0.3-0.2,0.4-0.4,0.6l0.2,0
			c-0.2,0.1-0.3,0.3-0.5,0.4l-0.1-0.3l-0.1,0.2l0.1,0.1l-0.1,0.1l0.1,0.4l-0.3,0l0.2,0.2c-0.1,0-0.3,0-0.4,0l0.1-0.2
			c-0.1,0.1-0.3,0.2-0.3,0.3c0,0.1,0.2,0.2,0.2,0.3c0,0.2-0.2,0.2-0.2,0.4c-0.2,0-0.4,0-0.5,0.1c0.3-0.1,0.5,0.3,0.4,0.5l-0.1-0.2
			l-0.3,0l0.1,0.1c-0.1,0.1-0.3,0.3-0.4,0.4l0.3,0.1l-0.1,0.1l0.1,0.2l-0.1,0.1c0,0.1,0,0.4,0.1,0.4l-0.4,0.1l0.1,0.1
			c-0.1,0.1-0.2,0.3-0.4,0.3c0,0.1-0.1,0.2-0.1,0.4l0.1-0.2l0.1,0l0,0.2c-0.2,0.1-0.4,0.1-0.4,0.3l0.4,0.1c-0.1,0-0.2,0.2-0.2,0.3
			l-0.4,0l-0.1,0.1c0.1,0.1,0.2,0.3,0.3,0.4l-0.4,0c0.1,0.2-0.1,0.6,0.1,0.5l-0.4,0.4l0.3,0.1l-0.3,0.2c0.1,0,0.4-0.1,0.4,0.1
			l-0.3,0.3l-0.2-0.2l0,0.3l0.2,0l0,0l2,0C275.6,33.7,275.6,33.4,275.5,33.2z M275.6,32.8c0.1-0.1,0.2-0.1,0.2-0.2
			c0.1,0,0.1,0.5,0.1,0.5l-0.2,0L275.6,32.8z M274.2,32.6l-0.3,0c0.1-0.1,0.1-0.3,0.3-0.4L274.2,32.6z M274,31.8
			c0.1-0.1,0.2-0.1,0.3-0.1C274.2,31.8,274.1,31.8,274,31.8z M275.1,29.2c0.1-0.1,0.2-0.1,0.3-0.1C275.3,29.2,275.2,29.2,275.1,29.2
			z M275.5,33.7c-0.1-0.1-0.1-0.2-0.1-0.3C275.5,33.5,275.5,33.7,275.5,33.7z"/>
	</g>
	<g>
		<path class="st4" d="M292.9,64.1l-0.3,0l0,0.1c0,0,0.1,0,0.1,0C292.9,64.2,292.9,64.2,292.9,64.1z"/>
		<path class="st4" d="M302.7,63.1c-0.2,0.1-0.5,0.1-0.8,0.3l0.8,0l-0.2,0L302.7,63.1z"/>
		<path class="st4" d="M284.9,62.3c0,0-0.1,0-0.2,0C284.8,62.3,284.8,62.3,284.9,62.3C284.8,62.3,284.9,62.3,284.9,62.3z"/>
		<path class="st4" d="M303.3,63.4L303.3,63.4C303.3,63.3,303.3,63.3,303.3,63.4C303.3,63.3,303.3,63.3,303.3,63.4z"/>
		<path class="st4" d="M305.4,62.3c-0.1-0.1-0.3-0.2-0.4-0.3l0.1,0.2c-0.1,0.1-0.1,0.1-0.2,0.1c0,0.2-0.1,0.3-0.3,0.4
			c-0.1,0,0-0.3,0.1-0.4l-0.2,0l-0.1,0.1c0,0.1,0.1,0.2,0.2,0.3l-0.2,0.3c-0.4-0.9-0.8-0.2-1.1,0.2l-0.1-0.1l-0.3,0l-0.2,0.3l0,0
			l0,0l-0.8,0c-0.1,0.1-0.2,0.1-0.2,0.2c-0.1-0.1-0.2-0.1-0.3-0.2c-0.4,0.1-0.6,0.3-1.1,0.2l0,0.3l-0.1-0.1L300,64
			c0-0.1-0.1-0.1-0.1-0.2l-0.1,0.1c-0.1-0.1-0.2-0.1-0.2-0.1l0,0.4c0,0,0,0-0.1,0c-0.1,0-0.1-0.1-0.1-0.2l-0.4,0l0.1,0.2l-0.3,0.2
			c-0.1-0.1-0.1-0.2-0.1-0.2c-0.1-0.1-0.2-0.1-0.4-0.2l0.1,0.2l-0.2,0.2c-0.2-0.1-0.4-0.1-0.6-0.2l0,0.2l0.2,0.1
			c-0.3,0.1-0.8,0.1-0.8-0.3c-0.1,0.1-0.3,0.2-0.4,0.3c-0.1-0.1-0.2-0.1-0.2-0.1l0,0.3l-0.5-0.3c-0.1,0-0.3,0.3-0.4,0l0,0.4
			c-0.3-0.2-0.6-0.2-0.8-0.5l-0.2,0.2c-0.1,0-0.2-0.1-0.1-0.2c-0.2,0.1-0.2,0.3-0.3,0.4l-0.3-0.3l-0.1,0.1l-0.2,0l-0.1-0.1l0.1-0.1
			l-0.1,0.1c-0.1-0.1-0.1-0.1-0.2-0.1c0,0-0.1,0.1-0.1,0.1l0-0.1c0,0-0.1,0-0.1-0.1c0.2,0.4-0.5,0.1-0.9,0.2
			c-0.1-0.1-0.2-0.2-0.2-0.2l0,0.2c-0.2-0.2-0.6-0.2-0.6-0.5l0.1-0.1c-0.1,0.1-0.2,0.1-0.3,0.1l0.2,0.1c0,0.5-0.3,0.1-0.7,0.1
			l-0.1-0.4c-0.2,0-0.4-0.1-0.6,0l0.2,0.1l-0.1,0.2c0.1-0.1,0.2,0,0.3,0.1c-0.2,0.1-0.4,0-0.6,0l0.2-0.2c-0.1,0-0.4,0-0.4,0.1
			c-0.1-0.1,0-0.4,0.1-0.5c-0.2,0.1-0.4,0.3-0.7,0.4c0,0,0-0.1,0-0.1c0-0.1,0-0.1,0.1-0.2c-0.1,0.1-0.3,0.1-0.2-0.1
			c-0.1,0.1-0.3,0.2-0.3,0.3c-0.1-0.1-0.2-0.2-0.2-0.3l0.1-0.1c-0.2,0.2-0.9,0.3-0.9,0.1c0,0,0-0.1,0-0.1l0,0l0,0
			c0-0.1,0.1-0.1,0.1-0.2c-0.1,0.1-0.1,0.1-0.2,0.2l0,0c-0.1,0-0.2,0.1-0.2,0.1c0,0,0-0.1-0.1-0.1l0,0c-0.1-0.1-0.1-0.3-0.1-0.3
			l-0.2,0.2c-0.2-0.1-0.5-0.1-0.7-0.2l0.1-0.1l-0.1-0.4l-0.1,0.2l-0.2,0l-0.1-0.1l0.1-0.1l-0.1,0.1c-0.1-0.1-0.3-0.2-0.5-0.3
			c-0.1,0-0.1,0-0.2,0c0,0,0.1-0.1,0.1-0.1c-0.2-0.1-0.4-0.3-0.5-0.4L284,62l-0.1-0.1c-0.1,0-0.4,0-0.3,0.1l-0.3,0l0.2-0.1l0-0.2
			c-0.1,0-0.5-0.1-0.5,0.1c-0.1-0.2-0.2-0.3-0.2-0.5l-0.1,0.1c-0.1-0.1-0.2-0.1-0.2-0.1l0,0.2c-0.2-0.1-0.3-0.4-0.1-0.5l-0.1,0.1
			c-0.2-0.1-0.4-0.1-0.5-0.2l0,0.2c-0.1-0.1-0.3-0.3-0.2-0.5l-0.1,0c-0.1-0.1-0.2-0.1-0.1-0.2l-0.1,0.1c-0.1-0.1-0.2-0.2-0.2-0.3
			l-0.4,0c0,0,0,0,0-0.1c0-0.1,0.1-0.2,0.1-0.3c-0.1,0.1-0.2,0.1-0.2,0.2l0-0.3l-0.1,0.1c-0.1-0.1-0.3-0.1-0.5-0.1c0,0,0,0,0-0.1
			l-2.9,0c0.1,0.1,0.2,0.2,0.2,0.5l0.3,0l0,0.5l0.1-0.1c0.1,0.1,0.2,0.1,0.4,0.2c-0.1,0.2-0.3,0.2-0.4,0.4c0.3,0,0.4-0.1,1,0.1
			l-0.2,0.2c0.1,0,0.4,0,0.4-0.1l0.1,0.4c0.2,0,0.4,0,0.5,0.1l-0.1,0.1l0.1,0.2c0-0.1,0.1-0.2,0.2-0.2l0,0.4l0.2,0l-0.2,0.2l0.2,0
			c0.1-0.1,0.2-0.2,0.3-0.2c0,0,0,0.1,0,0.1c0,0.1-0.1,0.2-0.1,0.3l0.1-0.2l0.2,0l0.2,0.3c0.1,0,0.4,0,0.3-0.1
			c0.2,0,0.2,0.4,0.2,0.5c0.4-0.2,0.6,0,0.7,0.3l4.1,0l-4.1,0c0,0,0,0.1,0.1,0.1l0.1-0.1c0.3,0,0.7,0.3,0.7,0.6l0.4,0
			c0,0.1,0,0.2-0.1,0.3c0.2-0.2,0.4-0.2,0.5,0.1l0.2,0c0-0.2,0.2-0.2,0.2-0.4l0.2,0.2c-0.1,0.1-0.2,0.1-0.2,0.1
			c0,0.1,0.1,0.3,0.2,0.4l0-0.2c0,0,0.1,0,0.1,0c0.1,0,0.2,0.1,0.3,0.2l-0.2,0.2c0.2,0,0.6,0.1,0.5,0.1l0.3-0.2L285,65l-0.2,0.2
			c0.1,0,0.9-0.1,0.9-0.1l0,0.1l-0.1,0.1c0.3,0,0.3-0.2,0.6,0c0,0.1,0,0.2-0.1,0.3l0.2-0.1l0.1,0.1c0.2,0,0.3-0.3,0.6,0
			c-0.1,0-0.2,0.1-0.2,0.2l0.3,0c0-0.1,0-0.2,0.1-0.3l0,0.3l0.3,0l0.1-0.3c0.2,0,0.3,0.4,0.3,0.5l0.1-0.2l0.2,0l0,0.2
			c0.1,0,0.2-0.1,0.3-0.1l0.3,0.3l0.2-0.2c0,0.1,0.1,0.2,0.2,0.3l0-0.2c0.4-0.2,0.4,0.1,0.5,0.4l0.1-0.1l0.1,0.1l0.1-0.1
			c0,0.2,1,0.2,1,0c0.1,0.2,0.2,0.4,0.4,0.5l-0.1-0.1c0.1-0.1,0.2-0.2,0.3-0.3l0,0.3c0.4,0,0.4,0.1,0.8,0.1l0-0.2c0,0,0,0,0.1,0
			c0.2,0,0.3,0.1,0.4,0.2l-0.2,0.2c0.2-0.1,0.3-0.2,0.4-0.3l0.1,0.1l0.1-0.1c0.1,0.1,0.3,0.1,0.5,0.2l0.1-0.2
			c0.2,0.1,0.2,0.1,0.3,0.3c0.3-0.2,0.5-0.6,0.8-0.1c0.2,0,0.7-0.2,0.8,0c-0.1-0.3,0.2-0.3,0.1-0.1l0.1-0.1l0.1,0.1l0.1-0.1l0.1,0.1
			c0.1-0.1,0.3-0.2,0.4-0.3c0,0,0.1,0.3-0.1,0.3L297,67l0.4,0c0-0.1,0.1-0.2,0.2-0.3l0.2,0c0,0.1,0,0.2-0.1,0.3
			c0.3-0.1,0.7-0.5,0.9-0.2l0.1-0.3l0.3,0.3c0.3-0.2,0.4-0.5,0.8-0.3l0.1-0.4l0.1,0.2c0.1,0,0.3,0,0.4,0.1c0.2-0.2,1.2,0.3,1-0.5
			c0.1,0,0.2,0,0.3,0.1l-0.1-0.1l0.2-0.3l0.1,0.1c0.1,0,0.2-0.1,0.3-0.2l-0.2,0.1l-0.1-0.3l0.9,0c0,0,0-0.1,0.1-0.1l0,0
			c0.1-0.1,0.2-0.2,0.2-0.3l-0.1-0.2l0.4,0c0.2-0.3,0.1-0.7,0.5-0.7l0-0.4c0.2-0.1,0.3,0,0.4,0.1c0.1-0.1,0.2-0.2,0.3-0.2l-0.2-0.2
			c0,0,0.1,0,0.1,0c0.3-0.1,0.5-0.3,0.7-0.4l0.1,0.1c-0.2-0.3-0.1-0.9,0.4-0.7l0-0.2L305.4,62.3z M303.4,63.5c0-0.1,0-0.1,0-0.2l0,0
			l0,0l0,0l0,0l0,0c0,0,0,0,0-0.1c0,0,0,0,0,0.1C303.3,63.4,303.4,63.5,303.4,63.5z"/>
		<path class="st4" d="M275.9,59.2L275.9,59.2C275.9,59.3,275.9,59.3,275.9,59.2z"/>
		<path class="st4" d="M278.6,58.6l0.1-0.1C278.6,58.6,278.6,58.6,278.6,58.6z"/>
		<path class="st4" d="M279.5,59.2l-0.1,0.2l-0.1-0.3l-0.1,0.2c-0.1-0.1-0.2-0.2-0.3-0.4l-0.1,0.2l-0.2,0c0,0,0-0.1,0-0.1
			c0-0.1,0.1,0,0.1-0.1c0,0-0.2-0.1-0.1-0.2l0,0c-0.3-0.1-0.2-0.4-0.1-0.3c-0.1-0.2-0.2-0.3-0.4-0.4c0.1,0,0.3,0,0.4-0.1
			c-0.2,0-0.5,0.1-0.5-0.2l-0.2,0.2c-0.1-0.1-0.2-0.2-0.2-0.3l0.1-0.1l-0.2,0.1l0-0.3l-0.4,0l0-0.6c-0.1,0.1-0.4,0.2-0.5,0.1
			l0.1-0.1l0-0.3c-0.1-0.1-0.2-0.3-0.2-0.4c0,0-0.2,0.2-0.3,0.2c-0.1,0-0.2,0-0.2,0l0.1-0.1l0.1-0.1l-0.2-0.1
			c0.1-0.1,0.1-0.2,0.1-0.2l-0.1,0.2l-0.2,0c-0.3-0.3,0-0.4-0.1-0.6l-0.3,0c0,0.1,0,0.2-0.1,0.3c0-0.2,0-0.5,0-0.7l-0.3-0.1l0.2-0.1
			c0-0.2,0.1-0.3,0.1-0.5c-0.2,0.1-0.3,0.2-0.4,0.4l0-0.3l-0.1,0.1l-0.3-0.2c0.1-0.1,0.2-0.3,0.3-0.4c-0.1,0-0.3-0.1-0.3-0.2l-0.4,0
			l0-0.3l-0.1,0.1l-0.3-0.1c0.2-0.1,0.3-0.3,0.4-0.5c-0.2,0-0.4,0-0.5-0.1c0.1-0.1,0.2-0.3,0.3-0.3l-0.2,0.1l-0.2,0
			c0.1-0.1,0.1-0.1,0.1-0.2l-0.3-0.1l0.2-0.1c-0.1-0.1-0.2-0.3-0.3-0.4l0.1-0.1l-0.2,0.1c-0.1-0.2,0-0.3-0.1-0.5l-0.2,0
			c0.1,0,0.1-0.4,0-0.5c-0.2,0-0.3,0-0.5,0l0.1-0.3l0.1,0.1l0.3-0.1c-0.5,0-0.3-0.3-0.1-0.3l0-0.2c-0.1,0-0.2,0.1-0.2,0.2
			c-0.1-0.1-0.1-0.1-0.1-0.2l-0.3-0.1c0-0.1,0.1-0.1,0.2-0.1c-0.1-0.2-0.2-0.4-0.4-0.5c0-0.1,0-0.1,0.1-0.1c-0.1-0.1-0.2-0.4,0-0.5
			l-0.2,0.1l-0.2,0c0,0,0-0.1,0-0.2l-2.1,0c0,0.1-0.1,0.2-0.1,0.3l0.2,0c0,0.1,0,0.2-0.1,0.3l0.2-0.1c0.1,0.2,0,0.3-0.1,0.4
			c0.1,0.2,0.1,0.4,0.2,0.6c0.1,0,0.3,0.1,0.4,0.1c-0.1,0-0.3,0.1-0.4,0.2l0.2,0.3c-0.1-0.1,0-0.3,0.2-0.3c0.1,0.1,0.2,0.2,0.2,0.3
			c0,0.1,0,0.1-0.1,0.1c0.1,0.2,0.3,0.3,0.2,0.6l0.2,0c0,0,0,0.1,0,0.1c0,0.1-0.1,0.1-0.1,0.2c0,0.1,0.1,0.3,0.1,0.4
			c0.1,0,0.4,0,0.4-0.1c0.1,0.2,0,0.4-0.1,0.6l0.2,0l0-0.2c0.2,0.1,0.2,0.3,0.4,0.4c-0.1,0.1-0.1,0.2-0.2,0.4c-0.1,0,0-0.1-0.1-0.1
			l-0.1,0l-0.1,0l0.2,0.1l0.2-0.1c0,0,0,0.1,0,0.1c0,0.1-0.1,0.2-0.1,0.3c0.4-0.1,0.5,0.4,0.4,0.6l0.2-0.1l0.1,0.4
			c0.2,0,0.4,0,0.6,0.2l-0.2,0.1c0.1,0.1,0.3,0.4,0.2,0.6l0.1-0.2l0.3,0c-0.1,0.1-0.2,0.2-0.3,0.3l0.1,0.3l0.1-0.3l0.3,0.1l-0.1,0.1
			v0.3l0.1-0.1l0.3,0l-0.2,0.1l0.1,0.1l0.1,0c0,0.1-0.1,0.1-0.2,0.1c0,0.2,0.2,0.3,0.2,0.5l0.1-0.3c0,0.1,0.1,0.2,0.1,0.3
			c0.1,0,0.3,0,0.4,0.2c-0.1,0.1-0.1,0.2-0.1,0.2c0.1,0,0.3,0.1,0.4,0.2c-0.1,0-0.2,0.1-0.2,0.2l0.2-0.2l0.1,0c0,0,0,0.1,0,0.1
			c0,0.1,0,0.2-0.1,0.2c0.5-0.1,0.4,0.4,0.5,0.7l0.2-0.2l0.2,0.1c-0.1,0.1-0.1,0.2-0.2,0.3c0.1,0.2,0.5,0.7,0.8,0.4
			c0.1,0.1,0.2,0.3,0.2,0.4l0,0c0.3,0.2,0.6,0.3,0.8,0.5l2.9,0C279.6,59.5,279.7,59.3,279.5,59.2z"/>
		<path class="st4" d="M269.1,48.5l-0.1,0L269.1,48.5C269.1,48.6,269.1,48.6,269.1,48.5z"/>
		<path class="st4" d="M269.2,48.3c0,0.1,0,0.1,0,0.2l2.1,0c-0.1-0.3-0.1-0.9,0-1l-0.2,0.2c-0.1-0.1-0.1-0.3,0.1-0.4
			c-0.1-0.1-0.2-0.3-0.3-0.3l0.2-0.1c0-0.1-0.5-0.5-0.2-0.6c-0.1-0.1-0.2-0.3-0.2-0.5c-0.1,0-0.2,0.1-0.2,0.2c0-0.1,0-0.3,0-0.4
			c0.1,0.1,0.1,0.1,0.2,0.1c0-0.2-0.2-0.4-0.3-0.5c0-0.1,0-0.2,0.1-0.2l-0.2-0.3l0.1-0.2c-0.1,0-0.2-0.1-0.3-0.1l0.3,0l0-0.3l-0.3,0
			c0,0.1,0,0.2-0.1,0.3c0-0.2,0.1-0.5,0-0.7l0.3,0l0-0.3l-0.1,0.2l-0.2,0l-0.2-0.2c0.1,0,0.1-0.1,0.2-0.1L270,43
			c0.1,0,0.2-0.1,0.3-0.2c-0.1,0-0.3-0.1-0.4-0.2l0.1-0.1c0-0.2-0.1-0.3-0.3-0.3c0.1-0.1,0.2-0.3,0.4-0.3c-0.1,0-0.3,0-0.4-0.1
			l0.4,0c-0.2-0.5-0.4-0.3,0-0.8l-0.4-0.1l0.2-0.2l-0.3-0.1c0.2-0.3-0.1-0.7,0.3-0.9c-0.6,0-0.2-0.3-0.2-0.7l0.3-0.1
			c-0.1-0.4,0-0.5,0-0.8c-0.3,0.4-0.4-0.1-0.1-0.1l-0.2-0.1l0-0.2c0.1-0.1,0.2-0.2,0.3-0.3l-2.6,0c0,0.1-0.1,0.1-0.1,0.2l0.2-0.1
			c0,0,0,0.1,0,0.1c0,0-0.3,0.4,0,0.3l-0.2,0.3l0.2,0.1c-0.1,0.2-0.2,0.3-0.2,0.5c0,0.2,0.3,0.4-0.2,0.7l0.2-0.1l0.2,0l-0.1,0.1
			l0.1,0.2c-0.1,0.1-0.2,0.1-0.2,0.1l-0.2,0.5c0.2,0,0.5,0.1,0.6,0.3l-0.3,0c0.1,0.4,0,0.5,0,0.8l0.1-0.2l0.1,0l0,0.2l-0.3,0
			l0.1,0.1l-0.1,0.1c0.1,0.2,0.1,0.4,0.3,0.5l-0.2,0.1v0.3l0.2,0l-0.2,0.1l0,0.3l0.2-0.1c0.2,0.1-0.1,0.3-0.1,0.4
			c0,0.1,0.1,0,0.1,0.1c0,0.1-0.1,0.1-0.1,0.2c0,0.1,0.3,0.3,0,0.4l0.2,0c0,0,0,0.1,0,0.1c0,0.1-0.1,0-0.1,0.1c0,0.1,0.3,0.1,0,0.3
			l0.3,0.1l-0.2,0.1l0.2,0.1c-0.3,0.4-0.2,0.5,0.1,0.7l-0.1,0.1c0.1,0.1,0,0.7,0,0.9c0.4,0,0.1,0,0.4-0.1l0,0.3l0.2-0.2l0,0.3
			c-0.1,0.1-0.3,0.1-0.4-0.1l-0.2,0.2l0.4,0l0,0.3l0.1-0.1l0.3,0.1l-0.2,0.1c0.1,0.1,0.1,0.2,0.2,0.2c-0.1,0-0.3,0.1-0.4,0.2
			l0.1,0.3l0.1-0.3c0.4,0.3,0.3,0.2,0.1,0.7l0.1,0.1l0.1,0C269.1,48.5,269.1,48.4,269.2,48.3z"/>
		<path class="st4" d="M270,37.4c0,0,0.1-0.1,0.1-0.1c-0.1-0.1-0.4-0.5-0.1-0.5l-0.1-0.1c0.1-0.1,0.1-0.2,0.2-0.3l-0.1-0.3l-0.1,0.3
			l-0.3-0.2c0-0.1,0.1-0.1,0.2-0.1l-0.2-0.2c0.2-0.1,0.4-0.2,0.6-0.4c-0.1,0-0.2-0.1-0.3-0.1l0.3,0l-0.2-0.2l0-0.4
			c0.1,0,0.3,0,0.4,0.1c-0.1-0.2-0.1-0.4-0.2-0.5c0.1-0.1,0.1-0.1,0.2-0.1c-0.3-0.2,0.2-0.4-0.1-0.5c0.2-0.1,0.4,0,0.5-0.1l-0.4-0.1
			l0.2-0.1l-0.2-0.2l0-0.4c0,0,0.1,0,0.1,0c0.1,0,0.2,0,0.2,0.1c0-0.5-0.2-0.6,0.2-1.3l0.2,0.2c0-0.2-0.1-0.4-0.3-0.4
			c0.1-0.2,0.3-0.4,0.4-0.5l-0.2-0.1l0-0.2l0.2,0.1c0-0.2,0-0.6,0-0.8c0.1,0,0.1,0.1,0.1,0.2l0.2,0c0-0.1-0.1-0.2-0.2-0.2
			c0.1-0.2,0.1-0.4,0.2-0.6l0.2,0.2c0-0.1,0-0.4-0.1-0.3c0.1-0.1,0.3-0.1,0.4-0.2c-0.1,0-0.2-0.1-0.3-0.1c0.1,0,0.2-0.1,0.3-0.2
			l-0.3-0.1l0.2-0.2l0.1,0.1l0.3-0.1l-0.3-0.1c0.2-0.3,0.5-0.5,0.7-0.9l-0.2,0.1l0-0.4l0.3,0l0-0.4l0.4-0.1l0-0.3l-0.1,0l-0.1,0
			l0.2-0.1c-0.1-0.1-0.1-0.2-0.2-0.2l0.3,0l0-0.4c0,0.1,0.1,0.2,0.2,0.2l-0.2-0.2c0.1-0.2,0.3-0.1,0.2-0.3c0.2-0.1,0.4-0.1,0.5-0.3
			c-0.2,0.1-0.3,0.2-0.3,0c0.4-0.3,0.9-0.7,1.2-1.1l-0.1-0.1c0.1-0.2,0.3-0.4,0.2-0.7l0.3,0c0-0.1,0-0.4-0.1-0.3c0,0,0-0.1,0.1-0.1
			l0,0c0.1-0.1,0.4,0,0.5-0.3l-0.2,0.1c0-0.1,0-0.3,0-0.4c0.1,0,0.1,0.1,0.1,0.2l0.5,0c0-0.1,0.1-0.5-0.1-0.3
			c0.1-0.2,0.2-0.5,0.4-0.7l0.2,0.2c0.1-0.3,0.2-0.5,0.3-0.8l0.2,0.2c-0.1-0.3,0.2-0.4,0.3-0.6l0.1,0.1c0.2-0.1,0.3-0.2,0.4-0.3
			l-0.1-0.2c0.2-0.1,0.4,0,0.6-0.1c0-0.2,0-0.3,0.2-0.4c-0.1-0.1-0.1-0.1-0.2-0.2c0.1-0.1,0.5-0.2,0.4-0.4c0.2-0.1,0.5-0.1,0.6-0.3
			l-0.2,0.1l0-0.2l0.4,0l0.1,0.3c-0.1-0.4,0.2-0.3,0.3-0.5c0.1,0.1,0.1,0.1,0.2,0.1l0-0.4l0.1,0.1c0.1-0.1,0.2-0.1,0.3-0.1l0-0.3
			l-0.2-0.1c0.3-0.2,0.5,0.1,0.7,0.2l-0.2-0.2l0.1-0.4l0.3,0c0,0.1,0,0.2-0.1,0.3c0.1-0.1,0.2-0.1,0.3-0.1c0-0.1-0.1-0.2-0.2-0.2
			c0.2-0.1,0.4-0.2,0.4-0.4c0.1,0.1,0.2,0.2,0.3,0.3c0.1-0.1,0.2-0.1,0.4-0.1c-0.1-0.1-0.1-0.4-0.1-0.6l0.5,0
			c-0.1-0.3,0.2-0.2,0.1-0.1l0.1-0.1l0.2,0.1c0.1-0.1,0.3-0.1,0.4-0.1l-0.2-0.2c0.1-0.1,0.1-0.2,0.2-0.4l0.1,0c0,0.1,0,0.2-0.1,0.3
			c0.2-0.1,0.3-0.2,0.4-0.4c0,0.1,0,0.3,0.1,0.4l0-0.4c-0.1,0,0.3-0.1,0.2,0.1c0.4-0.2,0.7-0.2,0.4-0.8l0.2-0.2l0.3,0.2l-0.2,0.2
			c0.1-0.1,0.4-0.2,0.3,0l0.2-0.1l-0.1-0.3l-0.1,0.1l-0.3-0.2c0.4-0.1,0.4,0,0.7,0c0-0.7,0.8-1,0.9-0.7c0-0.2,0-0.4,0.1-0.5
			c0,0.1,0.1,0.2,0.2,0.3l0-0.2l0.4-0.1l0-0.2c0,0,0.1,0,0.1,0c0.1,0,0.1,0,0.2,0.1c0-0.1-0.1-0.2-0.1-0.3l0.3,0
			c0.2-0.6,0.6-0.7,0.9-1.1l-0.3,0c0,0.2-0.3,0.4-0.5,0.2c0.1,0,0.2-0.1,0.3-0.2l-0.3,0c-0.1,0.1-0.2,0.2-0.3,0.2l0.2,0.2
			c0,0-0.3,0.1-0.3-0.1l-0.2,0c0,0.3-0.2,0.3-0.4,0.1l0,0.2c-0.2,0.1-0.3,0-0.4-0.1l-0.3,0c0.1,0.1,0.2,0.2,0.3,0.2
			c0,0-0.7,0.3-0.6,0c-0.2,0.2-0.2,0.3-0.4,0.3c-0.1-0.1-0.2-0.1-0.3-0.2c0,0.2,0.2,0.4,0,0.6l0-0.3c-0.2,0-0.3,0.1-0.3,0.3
			c-0.1-0.1-0.1-0.1-0.2-0.2l0,0.3l-0.1-0.1c-0.5,0.5-0.4,0.1-0.7,0.1c-0.1,0.4-0.3,0.4-0.5,0.7c-0.3,0-0.2-0.2-0.1-0.4l-0.3,0
			l-0.1,0.4l-0.1-0.2l-0.1,0.2l-0.1-0.2l-0.3,0c0.2,0.7-0.3,0.5-0.7,0.4c0,0.1,0.1,0.2,0.2,0.2c-0.2,0.1-0.4,0.2-0.6,0.2l0.2,0.1
			l-0.2,0.3l-0.2-0.1c0.1-0.1,0.1-0.2,0.1-0.2c-0.1,0.1-0.4,0.5-0.5,0.2l0,0.2l-0.3,0l0,0.3l-0.1-0.1c-0.1,0.1-0.3,0.1-0.4,0.1
			c0,0.1-0.1,0.4,0.1,0.4c-0.3,0.1-0.6,0.3-0.9,0.3l0,0.2l-0.3,0l0,0.3l-0.1-0.1c-0.1,0.1-0.3,0.2-0.5,0.2l-0.1,0.4
			c-0.1-0.1-0.1-0.1-0.2-0.1l0.2,0.2l-0.4-0.1l0.1,0.1l0,0.3l-0.1-0.1c-0.6,0-0.5,0.2-0.7,0.6c-0.1-0.1-0.1-0.1-0.2-0.1l0,0.2
			c-0.1,0-0.3,0.1-0.4,0.1c0.1,0,0.2,0.1,0.3,0.1l-0.3,0c0,0.1-0.1,0.3-0.2,0.4c-0.1-0.1-0.1-0.2-0.1-0.2l-0.3,0.2l0.2,0
			c0,0,0,0.1,0,0.1c0,0.1-0.1,0.2-0.2,0.3l-0.2-0.2c-0.1,0.2-0.1,0.3-0.3,0.4l0-0.3l-0.2,0c0.3,0.3-0.1,0.6-0.2,0.8l-0.1-0.2l-0.3,0
			c0,0.1,0.2,0.2,0.3,0.2c-0.1,0.1-0.1,0.2-0.2,0.4l-0.2-0.2l0.1,0.2c-0.1,0.1-0.3,0.2-0.5,0.2l0.1,0.2l-0.2,0.2l-0.1-0.1l-0.4,0.1
			c0.2,0.1,0.3,0.2,0.4,0.3c-0.2,0-0.3,0.1-0.5,0.2l0.1,0.2c-0.1,0.4-0.5,0.1-0.5,0.5c0,0.1,0,0.2,0.1,0.2l0,0.2
			c-0.1,0.1-0.4,0.1-0.5,0.3c-0.1-0.1-0.1-0.1-0.2-0.1c0,0,0.1,0.1,0.1,0.2l0,0c0,0,0,0.1,0,0.1c-0.2,0-0.4,0.2-0.6,0.3l0.2,0.2
			l-0.2,0.1l0,0.4c-0.2,0-0.4,0-0.5,0.2l0.1,0.2c-0.1,0.1-0.2,0.2-0.3,0.2l0.1,0.2c-0.3,0.4-0.5,0.7-0.7,1.1l0.3,0.1l-0.4,0.4
			c-0.1,0-0.2-0.1-0.3-0.1c0.2,0.1,0.2,0.3,0.3,0.5l-0.2,0l-0.2,0c0,0.1,0.1,0.2,0.1,0.3c0,0.2-0.1,0.3-0.1,0.5
			c-0.1,0.1-0.3,0.2-0.4,0.2l0.1,0.2l-0.4,0.1c0.1,0.1,0.1,0.2,0.2,0.2l-0.3,0l0.1,0.1c-0.1,0.1-0.1,0.2-0.1,0.2
			c0.1-0.1,0.2-0.1,0.2-0.2c0,0,0,0.1,0,0.1c0,0.3-0.4,0.3-0.4,0.2c0,0.5,0,1-0.4,1.3l0.2,0c0,0,0,0.1,0,0.1c0,0.3-0.5,0.2-0.6,0.4
			c0.1,0,0.3,0.1,0.4,0.2l-0.3,0.1c0.1,0,0.2,0,0.3,0.1c-0.2,0.1-0.2,0-0.3,0.2l-0.2-0.2c0,0.2-0.2,0.3-0.3,0.4v0.3l0.2,0
			c0,0.1,0.1,0.3,0.2,0.4l-0.3,0l0,0.4l0.2,0l-0.2,0.1l-0.1,0.4l-0.1-0.1l-0.3,0l0.2,0.1l0,0.7c-0.3,0.2,0,0.5-0.4,0.3
			c0.1,0.2,0.2,0.4,0,0.5l0,0.3l0.1-0.2l0.3,0.3l-0.4,0c0,0.1,0,0.4,0.1,0.4l-0.3,0.1c0.2,0.2,0.3,0.4,0,0.5l0,0.3l0.2,0v0.2l-0.2,0
			l0,0.8l0.2,0c-0.1,0.1-0.2,0.3-0.3,0.5L270,37.4z"/>
	</g>
	<g>
		<path class="st3" d="M277.4,80.4c-0.5,0-0.9-0.3-0.9-0.8c0-0.6,0.4-0.8,0.9-0.8l3.1,0c0.9,0,1.3,0.4,1.3,1.5
			c0,3.6-1.3,7.1-6.3,7.1c-4.3,0-6.5-3.7-6.5-7.5c0-3.8,2.1-7.5,6.7-7.5c3,0,5.1,1.6,5.1,2.4c0,0.5-0.4,0.9-0.9,0.9
			c-0.9,0-1.7-1.7-4.3-1.7c-3.3,0-4.7,3.1-4.7,5.9c0,2.8,1.3,5.9,4.8,5.9c2.9,0,4.3-2.4,4.3-4.4l0-0.9L277.4,80.4z"/>
		<path class="st3" d="M285.3,85.4l4.4,0c0.5,0,0.9,0.3,0.9,0.9c0,0.6-0.4,0.8-0.9,0.8l-5.3,0c-0.7,0-1-0.4-1-1l0-12.8
			c0-0.6,0.3-1,1-1l5.3,0c0.5,0,0.9,0.3,0.9,0.8c0,0.6-0.4,0.8-0.9,0.8l-4.4,0l0,4.8l4,0c0.5,0,0.9,0.3,0.9,0.8
			c0,0.6-0.4,0.8-0.9,0.9l-4,0L285.3,85.4z"/>
		<path class="st3" d="M294.5,86.3c0,0.6-0.4,1-0.9,1c-0.6,0-0.9-0.4-0.9-1l0-12.9c0-0.7,0.2-1.1,0.8-1.1c0.5,0,0.8,0.2,1.3,1
			l7.5,10.7l0,0l0-10.7c0-0.6,0.4-1,0.9-1c0.6,0,0.9,0.4,0.9,1l0,12.9c0,0.7-0.2,1.1-0.8,1.1c-0.5,0-0.8-0.2-1.3-1l-7.5-10.7l0,0
			L294.5,86.3z"/>
		<path class="st3" d="M308.3,86.3c0,0.6-0.4,1-0.9,1c-0.6,0-0.9-0.4-0.9-1l0-13.1c0-0.6,0.4-1,0.9-1c0.6,0,0.9,0.4,0.9,1l0,5.4
			l6.3-5.8c0.3-0.3,0.6-0.6,1-0.6c0.5,0,0.8,0.3,0.8,0.8c0,0.5-0.2,0.6-0.4,0.8l-6.1,5.4l6.6,6.4c0.3,0.3,0.4,0.5,0.4,0.7
			c0,0.4-0.4,0.8-0.9,0.8c-0.3,0-0.5,0-0.9-0.4l-6.9-6.8L308.3,86.3z"/>
	</g>
	<g>
		<path class="st3" d="M302.9,15.1c0,0.1-0.1,0.2-0.2,0.2c-0.2,0-0.3-0.3-0.8-0.3c-0.4,0-0.6,0.2-0.6,0.6c0,0.9,1.9,0.5,1.9,1.8
			c0,0.7-0.5,1.3-1.4,1.3c-0.5,0-1.1-0.2-1.1-0.5c0-0.1,0.1-0.3,0.2-0.3c0.2,0,0.4,0.3,0.9,0.3c0.5,0,0.8-0.4,0.8-0.8
			c0-1-1.9-0.5-1.9-1.8c0-0.5,0.4-1,1.2-1C302.4,14.6,302.9,14.8,302.9,15.1z"/>
		<path class="st3" d="M305.8,15c0-0.2,0.1-0.3,0.3-0.3c0.2,0,0.3,0.1,0.3,0.3l0,0.7l0.2,0c0.2,0,0.3,0.1,0.3,0.2
			c0,0.1-0.1,0.2-0.3,0.2l-0.2,0l0,2.4c0,0.2-0.1,0.3-0.3,0.3c-0.2,0-0.3-0.1-0.3-0.3l0-2.4l-0.2,0c-0.2,0-0.3-0.1-0.3-0.2
			c0-0.1,0.1-0.2,0.3-0.2l0.2,0L305.8,15z"/>
		<path class="st3" d="M311.6,18.5c0,0.2-0.1,0.2-0.2,0.2c-0.1,0-0.2-0.1-0.2-0.2l0-0.2l0,0c-0.2,0.3-0.5,0.5-0.8,0.5
			c-0.9,0-1.3-0.7-1.3-1.5c0-0.8,0.5-1.5,1.3-1.5c0.3,0,0.6,0.1,0.8,0.4l0,0l0-0.2c0-0.2,0.1-0.2,0.2-0.2c0.1,0,0.2,0.1,0.2,0.2
			L311.6,18.5z M310.3,18.3c0.6,0,0.8-0.6,0.8-1.1c0-0.5-0.2-1.1-0.8-1.1c-0.6,0-0.8,0.6-0.8,1.1C309.5,17.7,309.7,18.3,310.3,18.3z
			"/>
		<path class="st3" d="M316.2,18.3L316.2,18.3c-0.2,0.3-0.4,0.4-0.8,0.4c-0.8,0-1.3-0.7-1.3-1.5c0-0.8,0.5-1.5,1.3-1.5
			c0.4,0,0.7,0.2,0.8,0.4l0,0l0-1.5c0-0.2,0.1-0.3,0.3-0.3c0.2,0,0.3,0.1,0.3,0.3l0,3.9c0,0.2-0.1,0.3-0.3,0.3
			c-0.2,0-0.3-0.1-0.3-0.3L316.2,18.3z M315.5,16.1c-0.6,0-0.8,0.6-0.8,1.1c0,0.5,0.2,1.1,0.8,1.1c0.6,0,0.8-0.6,0.8-1.1
			C316.3,16.7,316.1,16.1,315.5,16.1z"/>
	</g>
</g>
<g>
	<path class="st5" d="M92.2,16.2c0,1,0.8,1.8,1.8,1.8c0,0,0,0,0,0v0c1,0,1.8-0.8,1.8-1.8c0-1-0.8-1.8-1.8-1.8c0,0,0,0,0,0v0
		C93,14.4,92.2,15.2,92.2,16.2z"/>
	<path class="st5" d="M92.2,63.1c0,1,0.8,1.8,1.8,1.8c0,0,0,0,0,0v0c1,0,1.8-0.8,1.8-1.8c0-1-0.8-1.8-1.8-1.8c0,0,0,0,0,0v0
		C93,61.3,92.2,62.1,92.2,63.1z"/>
	<path class="st5" d="M92.2,36.3c0,1,0.8,1.8,1.8,1.8c0,0,0,0,0,0v0c1,0,1.8-0.8,1.8-1.8c0-1-0.8-1.8-1.8-1.8c0,0,0,0,0,0v0
		C93,34.5,92.2,35.3,92.2,36.3z"/>
	<path class="st5" d="M92.2,22.9c0,1,0.8,1.8,1.8,1.8c0,0,0,0,0,0v0c1,0,1.8-0.8,1.8-1.8c0-1-0.8-1.8-1.8-1.8c0,0,0,0,0,0v0
		C93,21.1,92.2,21.9,92.2,22.9z"/>
	<path class="st5" d="M92.2,69.8c0,1,0.8,1.8,1.8,1.8c0,0,0,0,0,0v0c1,0,1.8-0.8,1.8-1.8c0-1-0.8-1.8-1.8-1.8c0,0,0,0,0,0v0
		C93,68,92.2,68.8,92.2,69.8z"/>
	<path class="st5" d="M92.2,76.5c0,1,0.8,1.8,1.8,1.8c0,0,0,0,0,0v0c1,0,1.8-0.8,1.8-1.8c0-1-0.8-1.8-1.8-1.8c0,0,0,0,0,0v0
		C93,74.6,92.2,75.5,92.2,76.5z"/>
	<path class="st5" d="M92.2,83.1c0,1,0.8,1.8,1.8,1.8c0,0,0,0,0,0c0,0,0,0,0,0c1,0,1.8-0.8,1.8-1.8c0-1-0.8-1.8-1.8-1.8c0,0,0,0,0,0
		v0C93,81.3,92.2,82.2,92.2,83.1z"/>
	<path class="st5" d="M92.2,29.6c0,1,0.8,1.8,1.8,1.8c0,0,0,0,0,0v0c1,0,1.8-0.8,1.8-1.8c0-1-0.8-1.8-1.8-1.8c0,0,0,0,0,0v0
		C93,27.8,92.2,28.6,92.2,29.6z"/>
	<path class="st5" d="M92.2,56.4c0,1,0.8,1.8,1.8,1.8c0,0,0,0,0,0v0c1,0,1.8-0.8,1.8-1.8c0-1-0.8-1.8-1.8-1.8c0,0,0,0,0,0v0
		C93,54.6,92.2,55.4,92.2,56.4z"/>
	<path class="st5" d="M92.2,49.7c0,1,0.8,1.8,1.8,1.8c0,0,0,0,0,0v0c1,0,1.8-0.8,1.8-1.8c0-1-0.8-1.8-1.8-1.8c0,0,0,0,0,0v0
		C93,47.9,92.2,48.7,92.2,49.7z"/>
	<path class="st5" d="M92.2,43c0,1,0.8,1.8,1.8,1.8c0,0,0,0,0,0v0c1,0,1.8-0.8,1.8-1.8c0-1-0.8-1.8-1.8-1.8c0,0,0,0,0,0v0
		C93,41.2,92.2,42,92.2,43z"/>
	<path class="st3" d="M252.2,83.2c0-1,0.8-1.8,1.8-1.8c0,0,0,0,0,0l0-3c0,0,0,0,0,0c-1,0-1.8-0.8-1.8-1.8c0-1,0.8-1.8,1.8-1.8
		c0,0,0,0,0,0l0-3c0,0,0,0,0,0c-1,0-1.8-0.8-1.8-1.8c0-1,0.8-1.8,1.8-1.8c0,0,0,0,0,0v-3c0,0,0,0,0,0c-1,0-1.8-0.8-1.8-1.8
		c0-1,0.8-1.8,1.8-1.8c0,0,0,0,0,0l0-3c0,0,0,0,0,0c-1,0-1.8-0.8-1.8-1.8c0-1,0.8-1.8,1.8-1.8c0,0,0,0,0,0l0-3c0,0,0,0,0,0
		c-1,0-1.8-0.8-1.8-1.8c0-1,0.8-1.8,1.8-1.8c0,0,0,0,0,0l0-3c0,0,0,0,0,0c-1,0-1.8-0.8-1.8-1.8c0-1,0.8-1.8,1.8-1.8c0,0,0,0,0,0l0-3
		c0,0,0,0,0,0c-1,0-1.8-0.8-1.8-1.8c0-1,0.8-1.8,1.8-1.8c0,0,0,0,0,0l0-3c0,0,0,0,0,0c-1,0-1.8-0.8-1.8-1.8c0-1,0.8-1.8,1.8-1.8
		c0,0,0,0,0,0l0-3c0,0,0,0,0,0c-1,0-1.8-0.8-1.8-1.8c0-1,0.8-1.8,1.8-1.8c0,0,0,0,0,0l0-3c0,0,0,0,0,0c-1,0-1.8-0.8-1.8-1.8
		c0-1,0.8-1.8,1.8-1.8c0,0,0,0,0,0v-0.1c0-7.6-6.2-13.8-13.8-13.8l-132.4,0c-7.5,0-13.5,5.9-13.8,13.3c0,0.2,0,0.3,0,0.5l0,0.1
		c0,0,0,0,0,0c0,0,0,0,0,0v0c0,0,0,0,0,0c1,0,1.8,0.8,1.8,1.8c0,1-0.8,1.8-1.8,1.8l0,3c0,0,0,0,0,0c0,0,0,0,0,0v0c0,0,0,0,0,0
		c1,0,1.8,0.8,1.8,1.8c0,1-0.8,1.8-1.8,1.8l0,3c0,0,0,0,0,0c0,0,0,0,0,0v0c0,0,0,0,0,0c1,0,1.8,0.8,1.8,1.8c0,1-0.8,1.8-1.8,1.8l0,3
		c0,0,0,0,0,0c0,0,0,0,0,0v0c0,0,0,0,0,0c1,0,1.8,0.8,1.8,1.8c0,1-0.8,1.8-1.8,1.8l0,3c0,0,0,0,0,0c0,0,0,0,0,0v0c0,0,0,0,0,0
		c1,0,1.8,0.8,1.8,1.8c0,1-0.8,1.8-1.8,1.8l0,3c0,0,0,0,0,0c0,0,0,0,0,0v0c0,0,0,0,0,0c1,0,1.8,0.8,1.8,1.8c0,1-0.8,1.8-1.8,1.8l0,3
		c0,0,0,0,0,0c0,0,0,0,0,0v0c0,0,0,0,0,0c1,0,1.8,0.8,1.8,1.8c0,1-0.8,1.8-1.8,1.8l0,3c0,0,0,0,0,0c0,0,0,0,0,0v0c0,0,0,0,0,0
		c1,0,1.8,0.8,1.8,1.8c0,1-0.8,1.8-1.8,1.8v3c0,0,0,0,0,0c0,0,0,0,0,0v0c0,0,0,0,0,0c1,0,1.8,0.8,1.8,1.8c0,1-0.8,1.8-1.8,1.8l0,3
		c0,0,0,0,0,0c0,0,0,0,0,0v0c0,0,0,0,0,0c1,0,1.8,0.8,1.8,1.8c0,1-0.8,1.8-1.8,1.8l0,3c0,0,0,0,0,0c0,0,0,0,0,0v0c0,0,0,0,0,0
		c1,0,1.8,0.8,1.8,1.8c0,1-0.8,1.8-1.8,1.8c0,0.1,0,0.1,0,0.2c0.3,7.3,6.4,13.2,13.8,13.2l132.4,0c7.5,0,13.6-6,13.8-13.4
		c0,0,0,0,0,0C253,85,252.2,84.2,252.2,83.2z"/>
	<path class="st6" d="M94,85C94,85,94,85,94,85C94,85,94,85,94,85C94,85,94,85,94,85c-1,0-1.8-0.8-1.8-1.8c0-1,0.8-1.8,1.8-1.8l0-3
		c0,0,0,0,0,0c0,0,0,0,0,0v0c0,0,0,0,0,0c-1,0-1.8-0.8-1.8-1.8c0-1,0.8-1.8,1.8-1.8v-3c0,0,0,0,0,0c0,0,0,0,0,0v0c0,0,0,0,0,0
		c-1,0-1.8-0.8-1.8-1.8c0-1,0.8-1.8,1.8-1.8l0-3c0,0,0,0,0,0c0,0,0,0,0,0v0c0,0,0,0,0,0c-1,0-1.8-0.8-1.8-1.8c0-1,0.8-1.8,1.8-1.8
		l0-3c0,0,0,0,0,0c0,0,0,0,0,0v0c0,0,0,0,0,0c-1,0-1.8-0.8-1.8-1.8c0-1,0.8-1.8,1.8-1.8l0-3c0,0,0,0,0,0c0,0,0,0,0,0v0c0,0,0,0,0,0
		c-1,0-1.8-0.8-1.8-1.8c0-1,0.8-1.8,1.8-1.8l0-3c0,0,0,0,0,0c0,0,0,0,0,0v0c0,0,0,0,0,0c-1,0-1.8-0.8-1.8-1.8c0-1,0.8-1.8,1.8-1.8
		l0-3c0,0,0,0,0,0c0,0,0,0,0,0v0c0,0,0,0,0,0c-1,0-1.8-0.8-1.8-1.8c0-1,0.8-1.8,1.8-1.8l0-3c0,0,0,0,0,0c0,0,0,0,0,0v0c0,0,0,0,0,0
		c-1,0-1.8-0.8-1.8-1.8c0-1,0.8-1.8,1.8-1.8l0-3c0,0,0,0,0,0c0,0,0,0,0,0v0c0,0,0,0,0,0c-1,0-1.8-0.8-1.8-1.8c0-1,0.8-1.8,1.8-1.8
		l0-3c0,0,0,0,0,0c0,0,0,0,0,0v0c0,0,0,0,0,0c-1,0-1.8-0.8-1.8-1.8c0-1,0.8-1.8,1.8-1.8v-0.1c0-0.2,0-0.4,0-0.5
		C93.7,6.4,87.7,0.5,80.2,0.5L13.8,0C6.2,0,0,6.2,0,13.8L0,84c0,7.6,6.2,13.8,13.8,13.8l66.4,0.5c7.4,0,13.5-5.8,13.8-13.2
		C94,85.1,94,85,94,85C94,85,94,85,94,85z"/>
	<path class="st6" d="M94,44.8l0,3c0,0,0,0,0,0c0,0,0,0,0,0L94,44.8C94,44.8,94,44.8,94,44.8C94,44.8,94,44.8,94,44.8z"/>
	<path class="st6" d="M94,64.9l0,3c0,0,0,0,0,0c0,0,0,0,0,0L94,64.9C94,64.9,94,64.9,94,64.9C94,64.9,94,64.9,94,64.9z"/>
	<path class="st6" d="M94,58.2l0,3c0,0,0,0,0,0c0,0,0,0,0,0L94,58.2C94,58.2,94,58.2,94,58.2C94,58.2,94,58.2,94,58.2z"/>
	<path class="st6" d="M94,24.8l0,3c0,0,0,0,0,0c0,0,0,0,0,0L94,24.8C94,24.8,94,24.8,94,24.8C94,24.8,94,24.8,94,24.8z"/>
	<path class="st6" d="M94,51.5l0,3c0,0,0,0,0,0c0,0,0,0,0,0L94,51.5C94,51.5,94,51.5,94,51.5C94,51.5,94,51.5,94,51.5z"/>
	<path class="st6" d="M94,38.1l0,3c0,0,0,0,0,0c0,0,0,0,0,0L94,38.1C94,38.1,94,38.1,94,38.1C94,38.1,94,38.1,94,38.1z"/>
	<path class="st6" d="M94,14.4C94,14.4,94,14.4,94,14.4C94,14.4,94,14.4,94,14.4l0.1-0.1c0-0.2,0-0.4,0-0.5c0,0.2,0,0.3,0,0.5V14.4z
		"/>
	<path class="st6" d="M94,31.4l0,3c0,0,0,0,0,0c0,0,0,0,0,0L94,31.4C94,31.4,94,31.4,94,31.4C94,31.4,94,31.4,94,31.4z"/>
	<path class="st6" d="M94,18.1l0,3c0,0,0,0,0,0c0,0,0,0,0,0L94,18.1C94,18.1,94,18.1,94,18.1C94,18.1,94,18.1,94,18.1z"/>
	<path class="st6" d="M94,85C94,85,94,85,94,85c0,0.1,0,0.1,0,0.2C94,85.1,94,85,94,85C94,85,94,85,94,85z"/>
	<path class="st6" d="M94,71.6v3c0,0,0,0,0,0c0,0,0,0,0,0L94,71.6C94,71.6,94,71.6,94,71.6C94,71.6,94,71.6,94,71.6z"/>
	<path class="st6" d="M94,78.3l0,3c0,0,0,0,0,0c0,0,0,0,0,0L94,78.3C94,78.3,94,78.3,94,78.3C94,78.3,94,78.3,94,78.3z"/>
</g>
<g>
	<path class="st1" d="M216.6,21.5c0.6,0,1.5,0.4,1.9,1l9.4,12.4l0.1,0l0-11.1c0-1.5,0.9-2.3,2.2-2.3c1.3,0,2.2,0.8,2.2,2.3l0,16.6
		c0,1.5-0.9,2.3-2.2,2.3c-0.6,0-1.5-0.4-1.9-1l-9.4-12.3l-0.1,0l0,10.9c0,1.5-0.9,2.3-2.2,2.3c-1.3,0-2.2-0.8-2.2-2.3l0-16.6
		C214.4,22.3,215.4,21.5,216.6,21.5z"/>
	<path class="st1" d="M203.1,21.7l7.4,0c1.4,0,2.1,1,2.1,2c0,1-0.7,2-2.1,2l-5.2,0l0,4.3l4.9,0c1.5,0,2.2,1,2.2,2c0,1-0.7,2-2.2,2
		l-4.9,0l0,4.5l5.5,0c1.4,0,2.1,1,2.1,2c0,1-0.7,2-2.1,2l-7.7,0c-1.3,0-2.3-0.9-2.3-2.2l0-16.1C200.8,22.7,201.6,21.7,203.1,21.7z"
		/>
	<path class="st1" d="M172.8,21.6l5.2,0c4.6,0,7.4,2,7.4,6.6c0,3.2-2.5,5.1-5.5,5.5l5.1,5.3c0.4,0.4,0.6,0.9,0.6,1.3
		c0,1.1-0.9,2.3-2.2,2.3c-0.5,0-1.2-0.2-1.7-0.8l-6.6-7.9l-0.1,0l0,6.4c0,1.5-0.9,2.3-2.2,2.3c-1.3,0-2.2-0.8-2.2-2.3l0-16.5
		C170.5,22.5,171.3,21.6,172.8,21.6z"/>
	<path class="st1" d="M159.1,21.6l7.4,0c1.4,0,2.1,1,2.1,2c0,1-0.7,2-2.1,2l-5.2,0l0,4.3l4.9,0c1.5,0,2.2,1,2.2,2c0,1-0.7,2-2.2,2
		l-4.9,0l0,4.5l5.5,0c1.4,0,2.1,1,2.1,2c0,1-0.7,2-2.1,2l-7.7,0c-1.3,0-2.3-0.9-2.3-2.2l0-16.1C156.8,22.7,157.5,21.6,159.1,21.6z"
		/>
	<path class="st1" d="M125.5,21.6l7.4,0c1.4,0,2.1,1,2.1,2c0,1-0.7,2-2.1,2l-5.2,0l0,4.3l4.9,0c1.5,0,2.2,1,2.2,2c0,1-0.7,2-2.2,2
		l-4.9,0l0,4.5l5.5,0c1.4,0,2.1,1,2.1,2c0,1-0.7,2-2.1,2l-7.7,0c-1.3,0-2.3-0.9-2.3-2.2l0-16.1C123.2,22.7,123.9,21.6,125.5,21.6z"
		/>
	<path class="st1" d="M118.3,21.4c1.3,0,2.2,0.8,2.2,2.3l0,16.6c0,1.5-0.9,2.3-2.2,2.3c-1.3,0-2.2-0.8-2.2-2.3l0-16.6
		C116.1,22.2,117,21.4,118.3,21.4z"/>
	<path class="st1" d="M129.4,76.7c-8.2,0-13.9-6.4-13.9-14.7c0-8.3,5.6-14.7,13.9-14.6c6.1,0,11.1,2.8,11.1,5.6
		c0,1.7-1.1,2.8-2.5,2.8c-2.7,0-3.3-2.9-8.6-2.9c-5,0-7.6,4.3-7.6,9.2c0,4.9,2.5,9.2,7.6,9.2c3.2,0,6.9-1.7,6.9-6.3l-4.1,0
		c-1.7,0-2.8-1.2-2.8-2.8c0-1.7,1.3-2.7,2.8-2.7l6.9,0c2.5,0,3.6,1.3,3.6,3.8C142.5,70.9,137.4,76.7,129.4,76.7z"/>
	<path class="st1" d="M139.3,42.5c-1,0-2.3-0.5-2.3-2.2l0-16.4c0-1.3,0.9-2.3,2.3-2.3l4.9,0c6.7,0,10.5,4.2,10.5,10.7
		c0,6.2-4,10.1-10.2,10.1L139.3,42.5z"/>
	<path class="st1" d="M158.6,76.2l-10.4,0c-1.8,0-3.1-1.2-3.1-3l0-21.9c0-2,1-3.5,3.1-3.5l10,0c1.9,0,2.9,1.4,2.9,2.8
		c0,1.4-1,2.7-2.9,2.7l-7.1,0l0,5.8l6.6,0c2,0,3,1.4,3,2.8c0,1.4-1,2.7-2.9,2.7l-6.6,0l0,6.1l7.5,0c1.9,0,2.9,1.4,2.9,2.8
		C161.4,74.8,160.5,76.2,158.6,76.2z"/>
	<path class="st1" d="M185,76.5c-0.8,0-2-0.6-2.5-1.3l-12.8-16.7l-0.1,0l0,14.9c0,2-1.3,3.1-3,3.1c-1.7,0-3-1.1-3-3.1l0-22.6
		c0-2,1.3-3.1,3-3.1c0.8,0,2,0.6,2.5,1.3l12.8,16.9l0.1,0l0-15.1c0-2,1.3-3.1,3-3.1c1.7,0,3,1.1,3,3.1l0,22.6
		C188,75.4,186.7,76.5,185,76.5z"/>
	<path class="st1" d="M187.1,40.3l0-16.1c0-1.5,0.7-2.5,2.3-2.5l7.4,0c1.4,0,2.1,1,2.1,2c0,1-0.7,2-2.1,2l-5.2,0l0,4.3l4.9,0
		c1.5,0,2.2,1,2.2,2c0,1-0.7,2-2.2,2l-4.9,0l0,4.5l5.5,0c1.4,0,2.1,1,2.1,2c0,1-0.7,2-2.1,2l-7.7,0
		C188.1,42.5,187.1,41.6,187.1,40.3z"/>
	<path class="st1" d="M211,76.5c-1.2,0-1.9-0.7-3.1-1.9l-10.5-11.2l0,10.2c0,1.6-1.2,2.9-3,2.9c-1.7,0-3-1.1-3-2.9l0-23
		c0-1.6,1.2-2.9,3-2.9c1.7,0,3,1.1,3,3l0,8.6l9.9-10.4c0.4-0.5,1.2-1.1,2.3-1.1c1.5,0,3,1.2,3,2.9c0,1-0.6,1.9-2,3.2l-7.6,7.4
		l9.3,9.6c1,1,1.7,1.8,1.7,3C214.2,75.7,212.7,76.5,211,76.5z"/>
	<path class="st1" d="M231.4,53.4l-4.4,0l0,20c0,2-1.3,3.1-3,3.1c-1.7,0-3-1.1-3-3.1l0-20l-4.4,0c-1.9,0-2.7-1.4-2.7-2.7
		c0-1.4,1-2.7,2.7-2.7l14.9,0c1.7,0,2.7,1.4,2.8,2.8C234.1,52.1,233.3,53.4,231.4,53.4z"/>
</g>
<path class="st1" d="M70.9,33.4C70.9,33.4,70.9,33.4,70.9,33.4v0.7c0,0.6-0.5,1.1-1.1,1.1h-4.6c-0.6,0-1.1-0.5-1.1-1.1v-1.5
	c0-10.1-8.5-18.2-18.7-17.5C36,15.7,29,23.9,29,33.2v22.5C29,67.1,39.9,76,51.8,72.5c7.5-2.2,12.3-9.1,12.3-16.9
	c0-2.6-0.6-4.4-1.8-5.6c-2.5-2.5-8.2-2.5-13.1-2.5l-1.5,0c-9.4,0-14.1-4-14.1-11.8c0-7.2,5.8-13,13-13c7.3,0,12.4,4,12.4,9.8
	c0,0.2,0,0.4,0,0.6v1c0,0.6-0.5,1.1-1.1,1.1h-4.6c-0.6,0-1.1-0.5-1.1-1.1v-1.6c0-2-2.9-2.9-5.6-2.9c-3.4,0-6.2,2.8-6.2,6.2
	c0,2.6,0,5,7.3,5l1.5,0c6.3,0,13.5-0.1,18,4.4c2.5,2.5,3.8,6.1,3.8,10.5c0,14.2-12.2,25.6-26.7,24.3c-12.6-1.2-22-12.3-22-25V33.3
	c0-12.7,9.4-23.8,22-25c14.1-1.3,26,9.4,26.7,23c0,0,0,0,0,0l0,0.6c0,0.2,0,0.4,0,0.5h0V33.4z"/>
<path class="st1" d="M40,52.8c0,1.5,0.6,2.8,1.4,3.9c0,0,0,0,0,0.1c0.1,0.1,0.2,0.2,0.3,0.4c0,0,0.1,0.1,0.1,0.1
	c1.2,1.1,2.8,1.9,4.5,1.9c3.6,0,6.5-2.9,6.5-6.5c0-0.1,0-0.3,0-0.4c2.8,0.1,5.8,0.3,6.6,1.2c0.3,0.4,0.4,0.6,0.3,1
	C59,61,53.3,66.2,46.4,66.2c-3.5,0-6.7-1.3-9.1-3.5c-0.1-0.1-0.2-0.1-0.2-0.2c-0.1-0.1-0.1-0.1-0.2-0.2c-0.1-0.1-0.1-0.1-0.2-0.2
	c-0.3-0.3-0.5-0.5-0.7-0.8c0,0,0-0.1-0.1-0.1c-1-1.2-1.8-2.7-2.3-4.2c0-0.1-0.1-0.2-0.1-0.3c-0.1-0.3-0.2-0.7-0.3-1
	c0-0.1-0.1-0.2-0.1-0.3C33.1,55,33,54.6,33,54.2c0,0,0-0.1,0-0.1c0-0.2,0-0.3,0-0.5c0,0,0,0,0,0l0-0.5v0l0-2.3
	c0-0.6,0.5-1.2,1.2-1.2h4.8c0.6,0,1.2,0.5,1.2,1.2L40,52.8L40,52.8z"/>
<g>
	<path class="st1" d="M35.3,85.2c-1.6,0-2.6,1.4-2.6,2.8c0,1.5,1.1,2.8,2.6,2.8c1.6,0,2.6-1.3,2.6-2.8
		C37.9,86.6,36.8,85.2,35.3,85.2z M35.3,89.5c-0.8,0-1.2-0.8-1.2-1.5c0-0.7,0.4-1.5,1.2-1.5c0.8,0,1.2,0.8,1.2,1.5
		C36.4,88.8,36,89.5,35.3,89.5z"/>
	<path class="st1" d="M23.8,90.9c-0.8,0-2.5-0.2-2.5-1.1c0-0.4,0.3-0.7,0.7-0.7c0.5,0,1.1,0.4,1.7,0.4c0.7,0,1-0.4,1-0.9
		c0-1.2-3.4-0.5-3.4-2.8c0-1.4,1.2-2.3,2.5-2.3c0.6,0,2,0.2,2,1c0,0.4-0.3,0.8-0.7,0.8s-0.7-0.3-1.4-0.3c-0.4,0-0.8,0.2-0.8,0.7
		c0,1.1,3.4,0.4,3.4,3C26.4,90,25.2,90.9,23.8,90.9z"/>
	<path class="st1" d="M44.2,86.6h-0.4V90c0,0.5-0.3,0.8-0.7,0.8s-0.7-0.3-0.7-0.8v-3.4h-0.3c-0.2,0-0.3-0.1-0.4-0.1
		c-0.2,0.1-0.4,0.2-0.7,0.3c-0.4,0.2-0.9,0.4-0.9,1V90c0,0.5-0.3,0.8-0.7,0.8s-0.7-0.3-0.7-0.8v-4c0-0.5,0.4-0.7,0.8-0.7
		c0.4,0,0.7,0.1,0.7,0.6h0c0.3-0.4,0.6-0.6,1-0.6c0.2,0,0.4,0.1,0.5,0.2c0.1-0.1,0.3-0.2,0.4-0.2h0.3v-0.9c0-0.5,0.3-0.8,0.7-0.8
		s0.7,0.3,0.7,0.8v0.9h0.4c0.4,0,0.7,0.2,0.7,0.6C44.9,86.4,44.5,86.6,44.2,86.6z"/>
	<path class="st1" d="M46.4,90c0,0.5-0.3,0.8-0.7,0.8c-0.4,0-0.7-0.3-0.7-0.8v-3.9c0-0.5,0.3-0.8,0.7-0.8c0.4,0,0.7,0.3,0.7,0.8V90z
		"/>
	<path class="st1" d="M45.6,84.7c-0.4,0-0.8-0.4-0.8-0.8c0-0.4,0.4-0.8,0.8-0.8c0.4,0,0.8,0.4,0.8,0.8
		C46.5,84.3,46.1,84.7,45.6,84.7z"/>
	<path class="st1" d="M52,90c0,0.5-0.3,0.8-0.7,0.8c-0.4,0-0.7-0.3-0.7-0.8v-2.6c0-0.7-0.4-1-1-1c-0.6,0-0.9,0.4-0.9,1V90
		c0,0.5-0.3,0.8-0.7,0.8c-0.4,0-0.7-0.3-0.7-0.8v-3.9c0-0.5,0.3-0.8,0.7-0.8c0.4,0,0.6,0.2,0.7,0.5c0.3-0.4,0.7-0.6,1.4-0.6
		c1.2,0,2,0.7,2,2V90z"/>
	<path class="st1" d="M56.1,90.9c-2.1,0-3.5-1.6-3.5-3.8c0-2.1,1.4-3.8,3.5-3.8c1.5,0,2.8,0.7,2.8,1.4c0,0.4-0.3,0.7-0.6,0.7
		c-0.7,0-0.8-0.7-2.2-0.7c-1.3,0-1.9,1.1-1.9,2.3c0,1.2,0.6,2.3,1.9,2.3c0.8,0,1.7-0.4,1.7-1.6h-1c-0.4,0-0.7-0.3-0.7-0.7
		c0-0.4,0.3-0.7,0.7-0.7h1.7c0.6,0,0.9,0.3,0.9,1C59.5,89.4,58.2,90.9,56.1,90.9z"/>
	<path class="st1" d="M70.4,90c0,0.5-0.3,0.8-0.7,0.8c-0.4,0-0.7-0.3-0.7-0.8v-2.6c0-0.7-0.4-1-1-1c-0.6,0-0.9,0.4-0.9,1V90
		c0,0.5-0.3,0.8-0.7,0.8c-0.4,0-0.7-0.3-0.7-0.8v-3.9c0-0.5,0.3-0.8,0.7-0.8c0.4,0,0.6,0.2,0.7,0.5c0.3-0.4,0.7-0.6,1.4-0.6
		c1.2,0,2,0.7,2,2V90z"/>
	<path class="st1" d="M75.2,90.9c-0.3,0-0.5-0.2-0.7-0.4l-1.8-2.2h0V90c0,0.5-0.3,0.8-0.7,0.8c-0.4,0-0.7-0.3-0.7-0.8v-6.3
		c0-0.5,0.3-0.8,0.7-0.8c0.4,0,0.7,0.3,0.7,0.8v3.4l1.6-1.6c0.2-0.2,0.5-0.3,0.7-0.3c0.4,0,0.6,0.3,0.6,0.7c0,0.2-0.1,0.4-0.3,0.6
		L74,87.7l1.7,2c0.1,0.2,0.2,0.3,0.2,0.5C75.9,90.6,75.6,90.9,75.2,90.9z"/>
	<g>
		<path class="st1" d="M64.3,89c-0.4,0-0.9,0.6-1.7,0.6c-0.7,0-1.3-0.3-1.4-1.1h3.1c0.4,0,0.6-0.2,0.6-0.7c0-1.2-1.1-2.7-2.6-2.7
			c-1.6,0-2.6,1.4-2.6,2.8c0,1.6,1.1,2.8,2.8,2.8c1.1,0,2.4-0.6,2.4-1.2C64.9,89.3,64.6,89,64.3,89z M62.4,86.4
			c0.7,0,1.1,0.5,1.2,1.1h-2.3C61.3,86.9,61.7,86.4,62.4,86.4z"/>
	</g>
	<g>
		<path class="st1" d="M29.8,85.2c-0.6,0-1.1,0.2-1.4,0.7c-0.1-0.4-0.3-0.6-0.7-0.6c-0.4,0-0.7,0.3-0.7,0.8v6.1
			c0,0.5,0.3,0.8,0.7,0.8c0.4,0,0.7-0.3,0.7-0.8v-1.8c0.4,0.3,0.9,0.5,1.3,0.5c1.5,0,2.4-1.4,2.4-2.8C32.2,86.7,31.4,85.2,29.8,85.2
			z M29.6,89.5c-0.8,0-1.2-0.8-1.2-1.5c0-0.7,0.4-1.4,1.2-1.4c0.8,0,1.1,0.8,1.1,1.5C30.7,88.7,30.4,89.5,29.6,89.5z"/>
	</g>
</g>
</svg>
